<svg width="538" height="565" viewBox="0 0 538 565" fill="none" xmlns="http://www.w3.org/2000/svg">
<path opacity="0.5" d="M269.873 438.085C380.621 438.085 470.399 351.764 470.399 245.281C470.399 138.798 380.621 52.4766 269.873 52.4766C159.126 52.4766 69.3477 138.798 69.3477 245.281C69.3477 351.764 159.126 438.085 269.873 438.085Z" stroke="white" stroke-width="88"/>
<path d="M286.84 257.317L298.448 257.466L298.631 246.137L287.07 244.66L286.84 257.317Z" fill="#BF0830"/>
<path d="M325.916 254.355L337.536 252.202L335.112 241.098L323.234 241.938L325.916 254.355Z" fill="#BF0830"/>
<path d="M307.106 159.265C306.673 170.958 304.791 216.731 300.834 246.647C300.701 247.607 300.196 248.488 299.413 249.125C298.631 249.761 297.626 250.109 296.587 250.102C293.397 250.091 290.225 249.653 287.168 248.8C286.304 248.563 285.542 248.077 284.994 247.411C284.445 246.744 284.138 245.933 284.116 245.094L282.504 154.013C282.502 153.792 282.518 153.57 282.555 153.351L282.629 152.9C282.734 152.316 282.978 151.761 283.342 151.275C283.705 150.789 284.18 150.384 284.732 150.09C285.284 149.796 285.899 149.62 286.533 149.574C287.167 149.529 287.804 149.615 288.398 149.827L304.362 155.461C305.189 155.748 305.898 156.269 306.391 156.952C306.883 157.634 307.133 158.443 307.106 159.265V159.265Z" fill="#1A2578"/>
<path d="M323.908 153.994C324.235 170.334 325.499 186.645 327.694 202.859C329.677 217.087 335.341 231.865 336.258 244.26C336.313 245.059 336.056 245.85 335.536 246.487C335.015 247.125 334.266 247.566 333.424 247.73C329.891 248.445 326.255 248.615 322.663 248.231C321.924 248.159 321.228 247.876 320.668 247.42C320.109 246.964 319.715 246.358 319.541 245.685L307.093 206.467L299.548 166.822L291.461 145.258L323.908 153.994Z" fill="#2836A5"/>
<path d="M298.713 258.815H288.534L284.404 254.684L276.856 258.815H275.232C274.961 258.809 274.696 258.891 274.483 259.046C274.269 259.201 274.12 259.42 274.061 259.666C274.028 259.822 274.032 259.983 274.074 260.137C274.116 260.291 274.194 260.434 274.303 260.556C274.412 260.679 274.549 260.777 274.703 260.844C274.858 260.91 275.026 260.944 275.197 260.943H298.866C298.949 260.943 299.029 260.913 299.088 260.858C299.147 260.804 299.181 260.73 299.182 260.652V259.237C299.181 259.181 299.169 259.125 299.145 259.073C299.121 259.021 299.086 258.974 299.043 258.935C298.999 258.896 298.947 258.865 298.891 258.844C298.834 258.824 298.774 258.814 298.713 258.815V258.815Z" fill="#AE253D"/>
<path d="M298.618 258.83V254.993C298.618 254.993 296.901 252.872 294.294 253.952C294.294 253.952 290.344 256.527 286.878 253.414L278.236 256.935C278.236 256.935 275.867 257.662 275.227 258.83H298.618Z" fill="#1F1587"/>
<path d="M338.093 252.882L328.308 255.468L323.101 252.559L317.09 258.447L315.529 258.858C315.266 258.922 315.036 259.068 314.876 259.272C314.717 259.477 314.638 259.726 314.654 259.978C314.672 260.136 314.726 260.288 314.814 260.424C314.901 260.56 315.018 260.677 315.159 260.766C315.299 260.855 315.459 260.915 315.627 260.941C315.794 260.967 315.966 260.959 316.13 260.917L338.878 254.901C338.918 254.89 338.955 254.873 338.987 254.849C339.02 254.825 339.047 254.795 339.067 254.761C339.087 254.727 339.099 254.69 339.104 254.651C339.108 254.613 339.104 254.574 339.092 254.537L338.667 253.173C338.632 253.064 338.552 252.972 338.444 252.918C338.337 252.863 338.211 252.851 338.093 252.882V252.882Z" fill="#AE253D"/>
<path d="M338.006 252.913L336.835 249.225C336.835 249.225 334.552 247.625 332.37 249.327C332.37 249.327 329.349 252.804 325.067 250.694L317.822 256.274C317.822 256.274 315.761 257.576 315.48 258.863L338.006 252.913Z" fill="#1F1587"/>
<path d="M283.32 104.094C283.32 104.094 277.641 95.281 277.133 93.9098C275.99 90.8328 272.926 62.5689 272.926 62.5689L282.055 61.9688L287.13 84.2315L293.937 98.1143L283.32 104.094Z" fill="#BF0830"/>
<path d="M271.856 52.8862C272.071 52.8164 272.305 52.8249 272.513 52.9099C272.721 52.995 272.887 53.1502 272.977 53.3444L274.171 55.814C274.188 55.8528 274.218 55.8853 274.257 55.9064C274.296 55.9275 274.341 55.9359 274.386 55.9304V55.9304C274.417 55.9279 274.448 55.9189 274.475 55.904C274.502 55.8891 274.525 55.8686 274.543 55.8442C274.561 55.8197 274.572 55.7919 274.577 55.7628C274.581 55.7336 274.578 55.7039 274.569 55.6758L273.34 51.8387C273.303 51.7416 273.291 51.6379 273.305 51.5359C273.319 51.4338 273.359 51.3363 273.421 51.251C273.482 51.1658 273.565 51.0953 273.661 51.0451C273.758 50.9949 273.865 50.9665 273.976 50.9621V50.9621C274.226 50.9494 274.474 51.0136 274.681 51.1451C274.889 51.2765 275.044 51.4678 275.123 51.6895L276.376 55.5994C276.39 55.6436 276.419 55.6819 276.46 55.7078C276.501 55.7337 276.55 55.7456 276.599 55.7413H276.669C276.697 55.7395 276.724 55.7324 276.75 55.7206C276.775 55.7087 276.797 55.6923 276.815 55.6723C276.833 55.6523 276.847 55.6291 276.855 55.6041C276.864 55.5791 276.867 55.5528 276.864 55.5267L276.407 51.0167C276.384 50.8064 276.447 50.5956 276.583 50.4264C276.719 50.2572 276.918 50.142 277.141 50.1038C277.259 50.0864 277.38 50.0917 277.496 50.1193C277.612 50.1469 277.72 50.1963 277.815 50.2644C277.91 50.3325 277.988 50.4179 278.046 50.5154C278.104 50.6128 278.14 50.7203 278.152 50.8312L278.613 55.3703C278.615 55.3963 278.622 55.4217 278.635 55.4449C278.648 55.4681 278.665 55.4887 278.687 55.5053C278.708 55.522 278.733 55.5344 278.76 55.5418C278.787 55.5493 278.815 55.5515 278.843 55.5485L279.069 55.5303C279.122 55.5259 279.17 55.5039 279.206 55.4684C279.242 55.4329 279.263 55.3863 279.265 55.3376L279.432 51.1076C279.437 50.8966 279.528 50.6952 279.685 50.5439C279.843 50.3927 280.057 50.303 280.283 50.2929C280.403 50.2893 280.523 50.3088 280.635 50.3502C280.746 50.3916 280.848 50.4541 280.932 50.5336C281.017 50.6131 281.083 50.708 281.126 50.8124C281.17 50.9168 281.19 51.0285 281.185 51.1403C281.185 51.1403 281.302 57.6035 281.411 58.611L283.363 57.1052C283.436 57.0224 283.526 56.9538 283.628 56.9035C283.729 56.8532 283.841 56.8221 283.955 56.8119C284.07 56.8018 284.186 56.8128 284.296 56.8444C284.406 56.876 284.508 56.9276 284.596 56.9961V56.9961C284.685 57.0646 284.759 57.1488 284.813 57.2438C284.867 57.3388 284.901 57.4429 284.911 57.5499C284.922 57.657 284.91 57.7651 284.876 57.8679C284.842 57.9707 284.787 58.0662 284.713 58.149L281.638 62.5681C281.439 62.7936 280.806 62.8518 280.287 62.7827C275.182 63.6011 274.389 63.6883 272.992 63.7902L272.66 58.6401C272.564 57.1536 272.179 55.6957 271.525 54.3374L271.357 53.9955C271.306 53.8927 271.279 53.7812 271.277 53.6682C271.276 53.5552 271.299 53.4431 271.346 53.3388C271.393 53.2346 271.462 53.1406 271.55 53.0627C271.638 52.9848 271.742 52.9247 271.856 52.8862V52.8862Z" fill="#BF0830"/>
<path d="M335.087 109.522C335.087 109.522 342.44 101.859 343.213 100.611C344.954 97.7888 353.658 70.5651 353.658 70.5651L344.813 68.3828L335.336 89.3616L325.848 101.822L335.087 109.522Z" fill="#BF0830"/>
<path d="M356.645 61.2321C356.449 61.1255 356.217 61.0922 355.996 61.1387C355.775 61.1853 355.581 61.3084 355.454 61.483L353.784 63.7017C353.759 63.7368 353.723 63.7633 353.68 63.7771C353.638 63.7909 353.592 63.7913 353.549 63.7781V63.7781C353.519 63.77 353.491 63.7559 353.468 63.7366C353.444 63.7173 353.426 63.6934 353.413 63.6666C353.401 63.6397 353.395 63.6107 353.397 63.5815C353.398 63.5524 353.406 63.5238 353.421 63.498L355.399 59.9446C355.455 59.8556 355.487 59.7559 355.494 59.6533C355.501 59.5507 355.482 59.4481 355.439 59.3535C355.395 59.2589 355.329 59.175 355.245 59.1084C355.161 59.0418 355.062 58.9944 354.954 58.9698V58.9698C354.712 58.9127 354.456 58.9316 354.226 59.0237C353.996 59.1157 353.805 59.2757 353.682 59.479L351.664 63.1161C351.641 63.1569 351.604 63.1893 351.558 63.2078C351.513 63.2263 351.462 63.2299 351.414 63.2179L351.344 63.1961C351.317 63.1895 351.292 63.1778 351.27 63.1618C351.248 63.1457 351.23 63.1258 351.216 63.103C351.203 63.0802 351.194 63.0552 351.191 63.0293C351.189 63.0034 351.191 62.9773 351.2 62.9524L352.554 58.5879C352.62 58.3861 352.602 58.1684 352.503 57.9786C352.404 57.7889 352.231 57.6414 352.019 57.5659C351.906 57.5275 351.786 57.5112 351.667 57.5177C351.547 57.5243 351.43 57.5538 351.322 57.6042C351.215 57.6547 351.12 57.7251 351.043 57.8111C350.967 57.8971 350.909 57.9968 350.876 58.1042L349.513 62.4687C349.497 62.5193 349.46 62.5621 349.411 62.5879C349.361 62.6136 349.303 62.6205 349.248 62.6069L349.029 62.5451C348.98 62.5323 348.937 62.503 348.909 62.4628C348.881 62.4226 348.87 62.3743 348.877 62.3269L349.568 58.1405C349.604 57.9322 349.554 57.7189 349.429 57.543C349.304 57.3671 349.113 57.2416 348.893 57.1913C348.776 57.1671 348.654 57.1655 348.537 57.1867C348.419 57.2078 348.307 57.2513 348.208 57.3143C348.109 57.3774 348.024 57.4587 347.96 57.5533C347.896 57.6478 347.854 57.7536 347.835 57.8641C347.835 57.8641 346.418 64.1927 346.11 65.1674L344.494 63.3489C344.38 63.1595 344.191 63.0195 343.967 62.9596C343.744 62.8996 343.504 62.9245 343.3 63.0288V63.0288C343.097 63.1338 342.946 63.3095 342.882 63.5174C342.818 63.7253 342.844 63.9485 342.956 64.1381L345.087 69.0191C345.239 69.2774 345.844 69.441 346.367 69.4665C351.219 71.1614 351.98 71.3869 353.335 71.7288L354.697 66.7277C355.091 65.285 355.763 63.9209 356.68 62.7015L356.91 62.396C356.978 62.3045 357.026 62.2009 357.05 62.0915C357.074 61.9822 357.073 61.8695 357.048 61.7604C357.023 61.6513 356.975 61.5481 356.905 61.4572C356.836 61.3663 356.747 61.2897 356.645 61.2321V61.2321Z" fill="#BF0830"/>
<path d="M308.883 88.8359L306.288 95.019C306.288 95.019 305.316 97.0813 307.174 98.0596L304.949 101.98C304.375 102.97 305.312 102.948 306.253 103.653C306.778 104.05 307.367 104.368 307.997 104.596C310.246 105.414 312.123 104.286 312.638 103.57C313.154 102.853 314.164 98.8925 314.164 98.8925L315.008 97.074L317.74 89.8325L308.883 88.8359Z" fill="#BF0830"/>
<path d="M313.012 93.912C313.024 93.9175 313.038 93.9203 313.051 93.9203C313.065 93.9203 313.078 93.9175 313.09 93.912C313.115 93.9024 313.135 93.8839 313.145 93.8607C313.155 93.8375 313.155 93.8115 313.145 93.7883C313.145 93.7883 312.364 92.0753 310.803 92.5299C310.777 92.5371 310.755 92.5536 310.743 92.5758C310.73 92.598 310.727 92.624 310.735 92.6481C310.743 92.6722 310.76 92.6925 310.784 92.7044C310.808 92.7164 310.836 92.719 310.862 92.7118C312.236 92.308 312.919 93.8029 312.946 93.8611C312.952 93.8739 312.961 93.8852 312.972 93.8941C312.984 93.9029 312.998 93.9091 313.012 93.912V93.912Z" fill="#090028"/>
<path d="M309.371 91.9841C309.384 91.9895 309.399 91.9923 309.414 91.9923C309.428 91.9923 309.443 91.9895 309.457 91.9841C309.48 91.9719 309.497 91.9517 309.504 91.9279C309.511 91.9041 309.508 91.8786 309.496 91.8568C309.472 91.8132 308.875 90.7657 308.122 91.0203C308.097 91.0293 308.077 91.0467 308.065 91.0689C308.054 91.0912 308.052 91.1167 308.059 91.1403C308.068 91.1639 308.087 91.1833 308.111 91.1942C308.135 91.2051 308.163 91.2066 308.188 91.1985C308.781 91.0057 309.312 91.9259 309.32 91.9441C309.331 91.9626 309.349 91.9767 309.371 91.9841V91.9841Z" fill="#090028"/>
<path d="M317.339 90.0985L314.904 91.597C314.904 91.597 309.439 91.597 307.847 88.6619C306.254 85.7267 307.425 85.0248 308.565 84.2755C309.127 83.9118 311.239 83.4863 312.94 85.0902C313.873 85.9668 315.282 84.8793 316.305 86.0541C317.328 87.2288 318.366 89.0037 317.991 89.4184C317.616 89.833 317.339 90.0985 317.339 90.0985Z" fill="#090028"/>
<path d="M317.614 89.1914C317.614 89.1914 319.819 89.8825 319.609 92.0429C319.398 94.2033 318.161 94.9235 317.899 95.4909C317.637 96.0583 316.424 100.117 313.605 98.7643L315.51 92.032L317.61 89.8497L317.614 89.1914Z" fill="#090028"/>
<path d="M313.336 94.3261C313.205 94.6371 313.176 94.9772 313.253 95.3035C313.329 95.6298 313.508 95.9275 313.767 96.1591C314.025 96.3906 314.351 96.5454 314.704 96.604C315.057 96.6626 315.421 96.6223 315.749 96.4882C316.077 96.3541 316.356 96.1323 316.549 95.8508C316.741 95.5692 316.84 95.2407 316.833 94.9068C316.825 94.5728 316.711 94.2485 316.506 93.9749C316.3 93.7012 316.012 93.4906 315.678 93.3696C315.457 93.289 315.221 93.2498 314.983 93.2542C314.746 93.2587 314.512 93.3067 314.294 93.3956C314.077 93.4844 313.88 93.6123 313.716 93.772C313.551 93.9317 313.422 94.12 313.336 94.3261V94.3261Z" fill="#BF0830"/>
<path d="M314.738 95.946C314.892 95.9976 315.06 96.001 315.216 95.9557C315.373 95.9104 315.509 95.8189 315.605 95.695C315.708 95.5826 315.767 95.4411 315.774 95.2933C315.78 95.1455 315.733 95 315.64 94.8803C315.538 94.7541 315.398 94.6589 315.239 94.6071C315.079 94.5553 314.906 94.5491 314.742 94.5893C314.87 94.4475 315.049 94.3533 315.245 94.3238C315.527 94.3102 315.804 94.3916 316.026 94.553C316.037 94.5583 316.049 94.56 316.061 94.5579C316.072 94.5557 316.083 94.5497 316.09 94.541C316.098 94.5323 316.102 94.5215 316.101 94.5104C316.101 94.4992 316.097 94.4885 316.089 94.4802C315.851 94.3026 315.55 94.2144 315.245 94.2329C315.108 94.2535 314.978 94.3011 314.862 94.3726C314.746 94.4441 314.648 94.5379 314.574 94.6475L314.469 94.7857L314.637 94.7166C314.797 94.6502 314.976 94.636 315.146 94.6762C315.316 94.7164 315.467 94.8088 315.573 94.9385C315.652 95.0426 315.691 95.168 315.684 95.295C315.678 95.4221 315.627 95.5435 315.538 95.6404C315.456 95.7482 315.338 95.828 315.203 95.8674C315.068 95.9068 314.922 95.9037 314.789 95.8587V95.8587C314.783 95.8563 314.777 95.8552 314.77 95.8552C314.764 95.8552 314.758 95.8565 314.752 95.8588C314.746 95.8612 314.741 95.8647 314.736 95.869C314.732 95.8734 314.729 95.8785 314.726 95.8841C314.723 95.8898 314.721 95.896 314.721 95.9024C314.721 95.9087 314.722 95.9151 314.725 95.921C314.727 95.9269 314.731 95.9322 314.736 95.9365C314.741 95.9408 314.747 95.944 314.754 95.946H314.738Z" fill="#AE253D"/>
<path d="M312.475 97.957C312.475 97.957 310.875 101.416 306.035 100.041L307.171 98.0771C307.171 98.0771 309.981 99.7574 312.475 97.957Z" fill="#AE253D"/>
<path d="M306.376 93.929C306.376 93.929 304.003 97.9007 306.934 99.141C311.122 100.912 312.492 98.7773 313.526 97.0169L315.181 93.187L315.509 92.0195C315.074 92.2299 314.721 92.5636 314.502 92.9725C314.03 93.8599 312.769 96.2458 312.476 96.2858C312.055 96.3149 307.211 93.7653 306.376 93.929Z" fill="#090028"/>
<path d="M309.238 94.9776C309.246 94.9828 309.256 94.9855 309.267 94.9855C309.277 94.9855 309.287 94.9828 309.296 94.9776C309.301 94.9732 309.305 94.9678 309.308 94.9619C309.311 94.9559 309.312 94.9495 309.312 94.943C309.312 94.9366 309.311 94.9302 309.308 94.9242C309.305 94.9183 309.301 94.9129 309.296 94.9085L308.48 94.2793L309.651 92.3261C309.657 92.3155 309.658 92.3031 309.655 92.2917C309.651 92.2802 309.643 92.2704 309.632 92.2643C309.626 92.2611 309.619 92.259 309.613 92.2582C309.606 92.2574 309.599 92.2578 309.593 92.2595C309.586 92.2612 309.58 92.2641 309.575 92.2681C309.569 92.272 309.565 92.2769 309.562 92.2825L308.363 94.3011L309.245 94.9812L309.238 94.9776Z" fill="#AE253D"/>
<path d="M309.614 96.0985C309.59 96.0985 307.779 95.3711 307.779 95.3711C307.779 95.3711 307.713 96.1567 308.384 96.4222C309.055 96.6877 309.614 96.0985 309.614 96.0985Z" fill="#FBFDFC"/>
<path d="M282.516 62.3329C282.516 62.3329 287.691 84.4028 287.508 84.1773C287.324 83.9518 296.907 99.966 298.409 100.632C299.912 101.297 320.341 102.45 320.341 102.45L334.807 89.7203L344.198 68.8106C346.634 68.8688 353.651 71.9894 353.651 71.9894L344.253 99.6423C343.867 100.773 343.206 101.805 342.32 102.657C338.468 106.353 327.64 116.824 326.766 118.493C325.704 120.527 324.221 163.593 324.221 163.593C289.58 163.455 282 155.694 282 155.694C282 155.694 286.142 113.409 286.227 111.223C286.227 111.223 280.642 101.872 278.811 98.2529C277.993 96.7572 277.255 95.224 276.602 93.6593C275.747 91.5243 272.461 63.053 272.461 63.053C275.33 62.1037 282.516 62.3329 282.516 62.3329Z" fill="#FCE6CF"/>
<g style="mix-blend-mode:multiply">
<g style="mix-blend-mode:multiply" opacity="0.5">
<g style="mix-blend-mode:multiply" opacity="0.5">
<path d="M296.605 160.378C298.842 134.245 308.272 102.286 308.365 101.966L307.772 101.82C307.678 102.14 298.233 134.151 295.988 160.341L296.605 160.378Z" fill="#F7546C"/>
</g>
</g>
</g>
<path d="M308.545 101.852C307.959 102.536 307.305 103.168 306.593 103.739C295.613 113.407 275.441 102.332 279.989 119.903C281.421 117.415 281.577 113.603 284.571 111.926C284.992 111.692 285.457 111.534 285.941 111.461C293.794 110.257 304.875 112.028 308.545 101.852Z" fill="#090028"/>
<path d="M308.693 103.369L307.507 103.984L306.644 103.696L306.305 102.132L307.593 101.336L308.85 101.689L308.693 103.369Z" fill="#090028"/>
<path d="M308.275 101.031L306.089 99.9648L305.031 101.416L306.327 103.187L308.064 101.893L308.7 103.74L313.977 102.06L313.696 100.652L308.275 101.031Z" fill="#F7546C"/>
<path d="M324.229 161.854C324.229 161.854 293.963 162.356 282.152 154.02L281.984 155.838C281.984 155.838 286.379 160.083 300.189 162.185C313.998 164.287 324.229 163.581 324.229 163.581V161.854Z" fill="#090028"/>
<path d="M299.741 159.99L299.179 162.038C299.154 162.13 299.091 162.209 299.005 162.258C298.918 162.308 298.814 162.324 298.714 162.303L293.129 161.143C293.076 161.132 293.027 161.112 292.983 161.083C292.939 161.054 292.903 161.016 292.875 160.973C292.848 160.93 292.83 160.882 292.823 160.833C292.817 160.783 292.821 160.733 292.836 160.685L293.48 158.662C293.508 158.574 293.572 158.499 293.657 158.452C293.743 158.405 293.844 158.391 293.941 158.411L299.444 159.543C299.496 159.553 299.545 159.573 299.588 159.601C299.631 159.629 299.668 159.665 299.695 159.707C299.723 159.749 299.741 159.796 299.749 159.844C299.757 159.893 299.754 159.942 299.741 159.99V159.99Z" fill="#BF0830"/>
<path d="M400.684 260.875H258.494C254.107 260.875 250.551 264.189 250.551 268.276V556.902C250.551 560.99 254.107 564.304 258.494 564.304H400.684C405.07 564.304 408.627 560.99 408.627 556.902V268.276C408.627 264.189 405.07 260.875 400.684 260.875Z" fill="#A22641"/>
<path d="M362.269 260.875H220.08C215.693 260.875 212.137 264.189 212.137 268.276V556.902C212.137 560.99 215.693 564.304 220.08 564.304H362.269C366.656 564.304 370.213 560.99 370.213 556.902V268.276C370.213 264.189 366.656 260.875 362.269 260.875Z" fill="#C43F5C"/>
<path d="M227.606 352.541V556.459C227.606 560.787 225.038 564.297 221.876 564.297H119.308C116.143 564.297 113.578 560.787 113.578 556.459V352.541C113.578 348.213 116.143 344.703 119.308 344.703H221.876C225.022 344.703 227.606 348.213 227.606 352.541Z" fill="#0B1249"/>
<path d="M199.891 352.541V556.459C199.891 560.787 197.327 564.297 194.162 564.297H91.5932C88.4316 564.297 85.8633 560.787 85.8633 556.459V352.541C85.8633 348.213 88.4316 344.703 91.5932 344.703H194.162C197.327 344.703 199.891 348.213 199.891 352.541Z" fill="#1A2578"/>
<path d="M331.652 543.13V556.46C331.652 560.789 328.919 564.298 325.578 564.298H216.839C213.482 564.298 210.766 560.789 210.766 556.46V543.123C210.766 538.795 213.498 535.285 216.839 535.285H325.578C328.931 535.292 331.652 538.802 331.652 543.13Z" fill="#D9901D"/>
<path d="M302.273 543.13V556.46C302.273 560.789 299.541 564.298 296.199 564.298H187.46C184.107 564.298 181.387 560.789 181.387 556.46V543.123C181.387 538.795 184.119 535.285 187.46 535.285H296.199C299.568 535.292 302.273 538.802 302.273 543.13Z" fill="#F4BA5E"/>
<path d="M53.2707 345.051C55.2779 344.848 57.2362 344.341 59.0684 343.551L62.7572 346.6L65.4166 344.667L68.0745 342.734L65.7869 338.658C67.053 337.194 68.0546 335.548 68.7522 333.784L73.6763 333.511L74.0881 330.392L74.4998 327.273L69.7945 325.894C69.5791 324.023 69.0372 322.198 68.1903 320.49L71.463 317.053L69.3884 314.576L67.3224 312.099L62.9502 314.231C61.378 313.051 59.6095 312.118 57.7144 311.469L57.4199 306.881L54.0742 306.497L50.7229 306.113L49.2431 310.497C47.2365 310.696 45.2783 311.199 43.4454 311.986L39.7566 308.936L37.0972 310.87L34.4378 312.803L36.7255 316.878C35.4584 318.343 34.4572 319.991 33.7616 321.757L28.8375 322.03L28.4257 325.149L28.0039 328.268L32.7093 329.647C32.9251 331.518 33.4675 333.343 34.3149 335.051L31.045 338.488L33.1196 340.965L35.1942 343.441L39.5678 341.316C41.1396 342.498 42.9082 343.433 44.8036 344.084L45.0896 348.672L48.4367 349.056L51.7837 349.439L53.2707 345.051ZM39.4292 331.96C38.5398 329.78 38.3641 327.404 38.9244 325.131C39.4846 322.858 40.7556 320.792 42.5766 319.192C44.3975 317.593 46.6867 316.533 49.1544 316.146C51.6221 315.759 54.1576 316.062 56.4401 317.018C58.7225 317.974 60.6495 319.539 61.9771 321.516C63.3048 323.493 63.9735 325.792 63.8987 328.123C63.8239 330.453 63.009 332.711 61.5569 334.61C60.1049 336.509 58.081 337.965 55.7413 338.792C52.6058 339.9 49.1265 339.803 46.0678 338.522C43.0091 337.241 40.6213 334.88 39.4292 331.96V331.96Z" fill="#D95F76"/>
<path d="M513.463 340.893C515.255 341.271 517.101 341.375 518.928 341.199L521.137 344.836L524.037 343.901L526.937 342.97L526.266 338.835C527.82 337.923 529.203 336.78 530.36 335.452L534.685 336.569L536.028 334.001L537.37 331.43L533.76 328.949C534.165 327.28 534.276 325.56 534.088 323.857L537.991 321.798L536.988 319.096L535.989 316.394L531.551 317.019C530.571 315.571 529.345 314.281 527.921 313.2L529.119 309.17L526.363 307.919L523.604 306.668L520.942 310.036C519.15 309.657 517.305 309.553 515.477 309.727L513.268 306.09L510.368 307.025L507.468 307.959L508.139 312.091C506.584 313.004 505.2 314.148 504.041 315.477L499.716 314.357L498.373 316.928L497.031 319.5L500.645 321.98C500.238 323.65 500.126 325.369 500.313 327.072L496.41 329.131L497.413 331.833L498.416 334.536L502.85 333.91C503.83 335.358 505.058 336.647 506.484 337.725L505.267 341.755L508.026 343.006L510.786 344.258L513.463 340.893ZM505.7 325.814C505.626 323.694 506.229 321.601 507.432 319.8C508.634 317.998 510.383 316.57 512.457 315.695C514.531 314.821 516.837 314.538 519.083 314.885C521.329 315.231 523.415 316.19 525.076 317.641C526.737 319.091 527.899 320.968 528.415 323.035C528.931 325.101 528.778 327.263 527.976 329.248C527.173 331.233 525.757 332.952 523.906 334.187C522.055 335.422 519.853 336.118 517.577 336.187C516.065 336.235 514.557 336.005 513.141 335.509C511.724 335.014 510.426 334.263 509.322 333.299C508.217 332.336 507.327 331.178 506.703 329.894C506.079 328.61 505.733 327.223 505.684 325.814H505.7Z" fill="#D95F76"/>
<path d="M116.718 257.989C119.333 259.44 122.185 260.483 125.161 261.077L126.648 267.864L131.722 267.776L136.796 267.685L138.007 260.848C140.956 260.15 143.763 259.007 146.316 257.465L152.519 261.288L156.031 257.876L159.544 254.465L155.212 248.834C156.767 246.396 157.886 243.737 158.526 240.964L165.809 239.582L165.711 234.853L165.618 230.125L158.28 229.001C157.532 226.252 156.305 223.635 154.65 221.254L158.752 215.475L155.091 212.201L151.426 208.928L145.384 212.969C142.769 211.517 139.917 210.474 136.941 209.881L135.497 203.047L130.423 203.138L125.348 203.229L124.138 210.063C121.19 210.762 118.383 211.905 115.829 213.445L109.626 209.626L106.113 213.038L102.601 216.45L106.933 222.08C105.378 224.518 104.26 227.177 103.623 229.951L96.3359 231.333L96.4335 236.061L96.5311 240.789L103.865 241.917C104.615 244.666 105.841 247.283 107.495 249.664L103.393 255.443L107.058 258.716L110.719 261.99L116.718 257.989ZM112.749 230.525C113.795 227.149 115.893 224.137 118.776 221.871C121.66 219.605 125.199 218.187 128.948 217.796C132.696 217.404 136.485 218.057 139.835 219.673C143.185 221.288 145.946 223.792 147.768 226.869C149.591 229.946 150.393 233.458 150.074 236.96C149.755 240.462 148.328 243.797 145.975 246.544C143.621 249.29 140.447 251.325 136.852 252.391C133.258 253.456 129.405 253.504 125.782 252.53C120.922 251.222 116.82 248.169 114.376 244.042C111.932 239.916 111.346 235.054 112.749 230.525V230.525Z" fill="#D95F76"/>
<path d="M372.954 171.706C382.177 171.608 403.789 171.706 422.388 174.11C430.089 175.114 437.193 169.302 437.537 161.609C437.681 158.463 436.787 154.75 434.113 150.469C423.828 133.985 403.04 148.323 402.681 156.434C402.681 156.434 399.512 144.067 387.236 145.628C374.96 147.188 378.028 165.148 378.028 165.148C378.028 165.148 374.168 164.148 371.33 165.857C368.493 167.567 369.703 171.742 372.954 171.706Z" fill="white"/>
<path d="M103.772 147.017C112.987 146.683 134.58 146.21 153.257 148.152C160.985 148.956 167.913 142.966 168.034 135.27C168.081 132.12 167.078 128.432 164.283 124.22C153.514 108.006 133.155 122.871 133.034 130.989C133.034 130.989 129.521 118.688 117.277 120.583C105.033 122.478 108.69 140.329 108.69 140.329C108.69 140.329 104.787 139.43 102.015 141.209C99.2441 142.988 100.536 147.134 103.772 147.017Z" fill="white"/>
<path d="M191.87 216.296C202.358 215.522 227.944 213.976 243.393 215.969C243.886 216.034 244.388 215.957 244.833 215.749C245.278 215.542 245.645 215.212 245.884 214.806C246.124 214.399 246.224 213.934 246.173 213.473C246.122 213.011 245.921 212.575 245.598 212.223C244.532 211.081 242.647 210.128 239.353 210.04C239.353 210.04 242.261 196.674 228.4 195.543C214.154 194.365 214.095 208.389 214.095 208.389C214.095 208.389 205.699 201.115 201.761 210.251C201.761 210.251 192.936 206.753 189.002 211.237C188.587 211.71 188.331 212.286 188.266 212.894C188.201 213.501 188.33 214.113 188.636 214.653C188.942 215.193 189.412 215.636 189.988 215.929C190.563 216.221 191.218 216.349 191.87 216.296Z" fill="white"/>
<path d="M503.522 397.619V556.153C503.522 560.656 501.008 564.308 497.909 564.308H397.421C394.322 564.308 391.809 560.671 391.809 556.153V397.619C391.809 393.117 394.322 389.465 397.421 389.465H497.909C501.008 389.465 503.522 393.117 503.522 397.619Z" fill="#1A2578"/>
<path d="M476.378 397.619V556.153C476.378 560.656 473.868 564.308 470.765 564.308H370.261C367.162 564.308 364.648 560.671 364.648 556.153V397.619C364.648 393.117 367.162 389.465 370.261 389.465H470.749C473.852 389.465 476.378 393.117 476.378 397.619Z" fill="#2836A5"/>
<path d="M148.177 454.143V510.59C148.177 514.919 145.515 518.428 142.229 518.428H35.7376C32.4511 518.428 29.7891 514.919 29.7891 510.59V454.143C29.7891 449.815 32.4511 446.305 35.7376 446.305H142.229C145.515 446.305 148.177 449.815 148.177 454.143Z" fill="#A22641"/>
<path d="M119.411 453.904V510.352C119.411 514.68 116.75 518.19 113.463 518.19H6.97191C3.68542 518.19 1.02344 514.68 1.02344 510.352V453.904C1.02344 449.576 3.68542 446.066 6.97191 446.066H113.463C116.75 446.066 119.411 449.576 119.411 453.904Z" fill="#C43F5C"/>
<path d="M162.402 284.841C162.402 284.841 163.546 293.509 162.211 293.894C160.876 294.28 165.693 303.678 168.035 298.022C168.858 296.047 165.974 284.929 162.367 283.234C158.761 281.539 162.402 284.841 162.402 284.841Z" fill="#090028"/>
<path d="M162.353 282.613C162.353 282.613 165.632 290.317 164.871 291.986C164.707 292.293 164.47 292.562 164.179 292.771C163.887 292.981 163.549 293.127 163.189 293.197L164.488 297.864L158.271 298.555L154.676 285.265C154.676 285.265 155.558 281.584 155.597 281.718C155.636 281.853 162.353 282.613 162.353 282.613Z" fill="#FF6160"/>
<path d="M162.197 289.673C162.186 289.675 162.176 289.672 162.167 289.667C162.159 289.662 162.153 289.654 162.15 289.644C162.15 289.615 162.15 289.586 162.15 289.575C162.38 289.448 162.427 289.008 162.439 288.848C162.035 288.699 161.711 288.407 161.537 288.037C161.36 287.632 161.314 287.189 161.404 286.76C161.404 286.735 161.436 286.724 161.455 286.735C161.467 286.742 161.476 286.753 161.481 286.765C161.486 286.777 161.486 286.791 161.482 286.804C161.404 287.205 161.447 287.618 161.607 287.997C161.692 288.172 161.813 288.331 161.964 288.463C162.115 288.594 162.292 288.697 162.486 288.764H162.525V288.811C162.525 288.837 162.525 289.47 162.193 289.641L162.197 289.673Z" fill="#AE253D"/>
<path d="M163.621 294.785L163.191 293.195C163.191 293.195 160.264 293.715 158.211 293.09C158.211 293.09 161.197 294.679 163.621 294.785Z" fill="#AE253D"/>
<path d="M157.531 287.915C157.518 287.92 157.504 287.923 157.49 287.923C157.476 287.923 157.462 287.92 157.449 287.915C157.436 287.909 157.424 287.9 157.415 287.889C157.406 287.878 157.399 287.866 157.395 287.853C157.391 287.839 157.39 287.825 157.392 287.812C157.393 287.798 157.398 287.785 157.406 287.773C157.406 287.773 158.456 286.096 159.994 286.755C160.02 286.767 160.04 286.788 160.05 286.814C160.06 286.84 160.059 286.868 160.048 286.893C160.042 286.906 160.033 286.917 160.022 286.927C160.011 286.936 159.998 286.943 159.984 286.948C159.969 286.953 159.954 286.955 159.939 286.954C159.924 286.954 159.91 286.95 159.896 286.944C158.549 286.366 157.64 287.817 157.601 287.879C157.584 287.899 157.558 287.912 157.531 287.915V287.915Z" fill="#090028"/>
<path d="M161.965 286.648C161.95 286.654 161.934 286.657 161.918 286.657C161.902 286.657 161.886 286.654 161.871 286.648C161.847 286.632 161.831 286.608 161.826 286.581C161.821 286.553 161.827 286.525 161.844 286.503C161.875 286.463 162.625 285.459 163.386 285.808C163.399 285.814 163.411 285.822 163.42 285.832C163.43 285.843 163.437 285.854 163.442 285.867C163.447 285.88 163.449 285.894 163.448 285.907C163.447 285.921 163.443 285.934 163.437 285.946C163.43 285.958 163.421 285.969 163.41 285.978C163.399 285.987 163.387 285.994 163.373 285.998C163.359 286.003 163.345 286.005 163.33 286.004C163.316 286.003 163.301 285.999 163.288 285.994C162.711 285.728 162.035 286.615 162.028 286.623C162.01 286.637 161.988 286.645 161.965 286.648Z" fill="#090028"/>
<path d="M160.82 290.481C160.855 290.481 163.033 290.223 163.033 290.223C163.033 290.223 162.846 291.088 162.038 291.183C161.23 291.277 160.82 290.481 160.82 290.481Z" fill="#FBFDFC"/>
<path d="M159.772 283.344L157.82 281.77C157.82 281.77 160.529 282.624 160.35 282.722C160.132 282.908 159.938 283.117 159.772 283.344V283.344Z" fill="#FF6160"/>
<path d="M155.149 283.419C155.149 283.419 156.32 286.303 164.126 285.212C164.126 285.212 164.782 280.414 158.853 280.171C152.924 279.927 153.428 284.008 153.533 283.946C153.638 283.884 155.149 283.419 155.149 283.419Z" fill="#090028"/>
<path d="M156.713 284.831C156.211 286.078 155.807 287.356 155.503 288.657C155.503 288.657 161.229 300.554 155.893 300.994L154.972 301.187C150.401 302.136 151.217 292.254 150.05 287.366C149.324 284.304 152.513 280.325 155.573 281.612C158.633 282.9 156.713 284.831 156.713 284.831Z" fill="#090028"/>
<path d="M157.198 289.896C157.283 290.21 157.266 290.54 157.15 290.845C157.033 291.15 156.823 291.416 156.544 291.609C156.266 291.803 155.932 291.915 155.585 291.931C155.238 291.948 154.894 291.868 154.595 291.703C154.297 291.537 154.058 291.293 153.909 291.001C153.76 290.708 153.707 290.381 153.757 290.061C153.807 289.741 153.957 289.442 154.19 289.201C154.422 288.961 154.726 288.79 155.063 288.71C155.286 288.658 155.519 288.646 155.748 288.677C155.976 288.708 156.196 288.781 156.394 288.891C156.592 289.001 156.765 289.146 156.903 289.319C157.041 289.491 157.141 289.688 157.198 289.896V289.896Z" fill="#FF6160"/>
<path d="M155.634 291.316C155.477 291.349 155.314 291.333 155.168 291.271C155.022 291.21 154.902 291.105 154.826 290.974C154.74 290.853 154.7 290.709 154.713 290.564C154.726 290.42 154.79 290.284 154.896 290.177C155.008 290.068 155.152 289.992 155.31 289.958C155.469 289.924 155.634 289.935 155.786 289.988C155.683 289.847 155.529 289.744 155.353 289.697C155.084 289.648 154.805 289.695 154.572 289.828C154.559 289.836 154.544 289.839 154.53 289.836C154.515 289.833 154.502 289.825 154.494 289.814C154.486 289.802 154.483 289.788 154.485 289.774C154.488 289.761 154.497 289.748 154.509 289.741C154.763 289.593 155.067 289.541 155.36 289.595C155.491 289.631 155.612 289.692 155.715 289.774C155.818 289.857 155.901 289.96 155.958 290.075L156.051 290.239L155.879 290.145C155.734 290.068 155.566 290.037 155.4 290.056C155.234 290.075 155.08 290.143 154.958 290.25C154.871 290.34 154.818 290.454 154.808 290.575C154.797 290.696 154.829 290.817 154.9 290.919C154.965 291.032 155.068 291.122 155.194 291.175C155.32 291.227 155.461 291.24 155.595 291.21C155.608 291.21 155.62 291.213 155.631 291.221C155.642 291.228 155.649 291.238 155.653 291.25C155.656 291.261 155.656 291.274 155.651 291.285C155.646 291.297 155.637 291.306 155.626 291.312L155.634 291.316Z" fill="#AE253D"/>
<path d="M162.352 281.188C162.352 281.188 165.665 283.21 166.969 290.844L163.257 283.85L162.352 281.188Z" fill="#090028"/>
<path d="M173.633 394.91L163.602 391.986L167.274 381.031L177.712 382.661L173.633 394.91Z" fill="#FF6160"/>
<path d="M170.476 364.238L175.125 355.434L165.119 350.846L160.47 359.651L170.476 364.238Z" fill="#FF6160"/>
<path d="M158.04 348.25C158.271 348.25 166.78 351.76 166.78 351.76L169.512 353.411C169.512 353.411 165.367 379.711 164.598 386.734C164.598 386.734 170.597 390.677 176.67 390.819C176.67 390.819 189.207 350.101 189.207 344.929C189.207 339.757 162.545 327.504 162.545 327.504L150.413 334.029C150.413 334.029 132.182 335.426 127.99 338.073C123.798 340.721 160.534 356.23 160.534 356.23L158.04 348.25Z" fill="#FCE6CF"/>
<path d="M167.407 350.781C167.407 350.781 146.825 339.346 139.753 337.563C132.68 335.781 127.598 337.287 126.829 339.382C126.06 341.477 125.291 347.336 126.829 349.271C128.367 351.206 155.21 360.452 161.361 362.027C161.361 362.012 166.837 356.083 167.407 350.781Z" fill="#FCE6CF"/>
<path d="M126.983 339.228C126.955 339.233 126.926 339.233 126.898 339.228C126.852 339.207 126.817 339.169 126.8 339.123C126.783 339.078 126.786 339.028 126.808 338.985C127.343 337.977 129.282 337.057 132.577 336.25C135.607 335.554 138.681 335.035 141.78 334.697C141.827 334.697 146.581 334.155 146.855 334.333C146.897 334.36 146.927 334.401 146.937 334.448C146.948 334.495 146.938 334.544 146.909 334.584C146.884 334.617 146.848 334.641 146.806 334.654C146.765 334.666 146.72 334.666 146.679 334.653C145.703 334.515 128.767 336.075 127.14 339.134C127.124 339.16 127.102 339.183 127.074 339.2C127.047 339.216 127.016 339.226 126.983 339.228Z" fill="#090028"/>
<path d="M165.354 356.468C165.317 356.468 165.281 356.458 165.249 356.439C165.205 356.413 165.175 356.372 165.164 356.325C165.153 356.278 165.162 356.229 165.19 356.188C166.316 354.5 167.013 352.594 167.228 350.616C158.164 345.152 148.611 340.426 138.676 336.49C138.636 336.467 138.606 336.431 138.591 336.39C138.577 336.348 138.579 336.303 138.598 336.263C138.616 336.222 138.65 336.19 138.692 336.171C138.734 336.151 138.783 336.147 138.828 336.159C155.702 342.884 167.423 350.3 167.54 350.376L167.63 350.431V350.532C167.435 352.61 166.712 354.615 165.522 356.381C165.505 356.408 165.48 356.43 165.45 356.445C165.421 356.46 165.388 356.468 165.354 356.468V356.468Z" fill="#090028"/>
<path d="M142.34 337.917C142.31 337.916 142.281 337.91 142.254 337.898C142.227 337.886 142.203 337.869 142.184 337.848C141.569 337.198 140.849 336.642 140.049 336.2C140.01 336.174 139.983 336.134 139.973 336.09C139.963 336.046 139.971 336 139.995 335.962C140.019 335.923 140.058 335.893 140.104 335.88C140.15 335.866 140.2 335.869 140.244 335.887C141.088 336.351 141.846 336.937 142.492 337.622C142.524 337.66 142.538 337.708 142.531 337.756C142.525 337.804 142.498 337.847 142.457 337.877C142.424 337.902 142.383 337.916 142.34 337.917V337.917Z" fill="#090028"/>
<path d="M184.678 363.902H184.631C184.581 363.89 184.538 363.861 184.511 363.82C184.484 363.779 184.475 363.73 184.487 363.683C184.53 363.527 188.515 348.153 189.011 345.498C189.487 342.952 183.624 339.231 183.546 339.195C183.522 339.183 183.5 339.166 183.483 339.146C183.466 339.126 183.454 339.103 183.447 339.078C183.441 339.053 183.44 339.027 183.444 339.001C183.449 338.976 183.46 338.952 183.475 338.931C183.491 338.91 183.511 338.892 183.535 338.878C183.558 338.865 183.585 338.856 183.612 338.853C183.639 338.85 183.667 338.852 183.693 338.859C183.72 338.867 183.744 338.88 183.765 338.896C184.015 339.053 189.893 342.788 189.374 345.56C188.878 348.218 184.889 363.607 184.846 363.745C184.84 363.785 184.821 363.822 184.791 363.85C184.76 363.878 184.721 363.896 184.678 363.902V363.902Z" fill="#090028"/>
<path d="M171.935 354.955C171.897 354.956 171.861 354.946 171.829 354.926L167.095 352.107C167.073 352.095 167.054 352.078 167.039 352.059C167.024 352.039 167.014 352.017 167.008 351.994C167.003 351.97 167.002 351.946 167.007 351.922C167.012 351.899 167.022 351.876 167.036 351.856C167.05 351.837 167.067 351.819 167.088 351.806C167.109 351.792 167.132 351.783 167.157 351.778C167.181 351.773 167.207 351.772 167.232 351.776C167.257 351.78 167.28 351.789 167.302 351.802L172.04 354.621C172.084 354.647 172.114 354.688 172.125 354.735C172.136 354.782 172.127 354.831 172.099 354.872C172.082 354.898 172.058 354.919 172.029 354.934C172 354.949 171.968 354.956 171.935 354.955V354.955Z" fill="#090028"/>
<path d="M176.662 391.001H176.639C176.288 390.957 168.001 389.884 164.457 386.873L164.383 386.807V386.713L167.962 361.98L169.024 353.189C169.026 353.165 169.033 353.142 169.045 353.121C169.057 353.099 169.073 353.081 169.094 353.066C169.114 353.051 169.137 353.04 169.162 353.033C169.187 353.027 169.213 353.026 169.238 353.029C169.29 353.035 169.336 353.059 169.368 353.096C169.401 353.134 169.416 353.182 169.41 353.229L168.348 362.027L164.785 386.658C168.298 389.549 176.596 390.626 176.678 390.637C176.703 390.64 176.728 390.647 176.751 390.659C176.773 390.671 176.793 390.686 176.808 390.706C176.824 390.725 176.835 390.746 176.842 390.769C176.848 390.793 176.85 390.817 176.846 390.841C176.84 390.883 176.818 390.922 176.785 390.951C176.751 390.98 176.708 390.998 176.662 391.001Z" fill="#090028"/>
<path d="M129.772 349.607C129.731 349.607 129.691 349.594 129.659 349.571C127.442 348.05 127.457 346.737 127.461 346.683C127.461 346.659 127.466 346.635 127.477 346.613C127.487 346.591 127.502 346.572 127.52 346.555C127.539 346.539 127.561 346.526 127.585 346.518C127.609 346.51 127.635 346.507 127.66 346.508C127.686 346.509 127.711 346.514 127.734 346.523C127.758 346.533 127.779 346.547 127.796 346.564C127.813 346.581 127.827 346.602 127.836 346.624C127.845 346.646 127.849 346.67 127.848 346.694C127.848 346.712 127.848 347.887 129.889 349.28C129.922 349.303 129.946 349.334 129.958 349.371C129.971 349.407 129.97 349.446 129.957 349.483C129.944 349.519 129.919 349.55 129.886 349.573C129.853 349.595 129.813 349.607 129.772 349.607Z" fill="#090028"/>
<path d="M131.749 349.265C131.718 349.264 131.687 349.257 131.66 349.243C129.228 348.043 129.041 346.741 129.033 346.697C129.03 346.674 129.031 346.65 129.038 346.627C129.045 346.604 129.056 346.583 129.072 346.564C129.087 346.546 129.107 346.53 129.129 346.519C129.151 346.507 129.176 346.5 129.201 346.497C129.252 346.492 129.303 346.505 129.344 346.534C129.384 346.564 129.412 346.606 129.419 346.654C129.419 346.675 129.618 347.836 131.843 348.934C131.888 348.958 131.921 348.997 131.937 349.043C131.952 349.089 131.948 349.138 131.925 349.181C131.906 349.209 131.88 349.231 131.849 349.245C131.819 349.26 131.784 349.267 131.749 349.265Z" fill="#090028"/>
<path d="M164.746 312.255L160.956 297.43H150.636C149.539 297.43 148.028 298.103 147.966 298.132C143.821 300.187 132.423 311.891 132.993 319.267C133.508 325.963 143.852 324.632 154.16 326.177L156.452 317.299L152.724 316.368L164.746 312.255Z" fill="#D95F76"/>
<path d="M161.328 314.444V297.43H171.652C172.749 297.43 174.259 298.103 174.322 298.132C178.467 300.187 191.289 312.262 190.715 319.638C190.196 326.334 178.104 326.065 172.437 327.694L169.287 317.077L169.564 316.539L161.328 314.444Z" fill="#D95F76"/>
<path d="M178.062 316.767L177.933 335.316C177.933 335.316 159.905 338.386 143.855 334.407C143.464 334.308 144.608 319.069 144.608 319.069C144.608 319.069 144.608 316.116 146.282 315.199C147.957 314.283 161.606 308.652 161.93 308.652C162.254 308.652 178.062 316.767 178.062 316.767Z" fill="#D95F76"/>
<path d="M160.772 302.59C160.824 302.59 160.874 302.571 160.91 302.537C160.947 302.503 160.968 302.456 160.968 302.408C160.968 302.36 160.947 302.314 160.91 302.28C160.874 302.245 160.824 302.226 160.772 302.226C154.847 301.863 152.915 298.098 152.896 298.058C152.885 298.036 152.87 298.017 152.851 298.001C152.833 297.985 152.811 297.972 152.787 297.964C152.763 297.956 152.737 297.952 152.712 297.953C152.686 297.955 152.661 297.961 152.638 297.971C152.591 297.991 152.554 298.027 152.536 298.072C152.518 298.117 152.519 298.167 152.541 298.211C152.56 298.251 154.582 302.212 160.737 302.575L160.772 302.59Z" fill="#090028"/>
<path d="M167.306 297.43H154.25C154.25 297.43 156.592 301.238 161.12 301.223C163.192 301.216 165.405 300.507 167.306 297.43Z" fill="#FF6160"/>
<path d="M159.26 321.968C158.432 321.186 159.197 320.193 159.197 320.193C158.889 319.007 159.228 318.491 159.228 318.491C159.228 318.491 162.714 319.455 164.693 320.135C165.809 319.979 166.204 319.469 166.204 319.469L166.231 319.513C166.254 318.615 166.282 317.484 166.282 317.36C166.282 317.142 166.648 316.8 167.226 317.48C167.834 318.29 168.398 319.127 168.916 319.99L171.801 318.411L174.143 325.973C174.143 325.973 167.148 326.896 166.071 326.965C164.993 327.035 161.246 326.216 160.13 325.354C159.014 324.492 159.256 323.725 159.256 323.725C159.024 323.483 158.897 323.17 158.897 322.846C158.898 322.522 159.027 322.209 159.26 321.968Z" fill="#F78C63"/>
<path d="M166.865 316.964V319.318C166.618 319.625 166.287 319.864 165.906 320.01C165.525 320.156 165.109 320.203 164.702 320.147L163.621 319.783L164.472 316.379L166.865 316.964Z" fill="#AE253D"/>
<path d="M161.565 321.352C161.593 321.352 161.619 321.344 161.642 321.329C161.664 321.314 161.681 321.293 161.69 321.269C161.695 321.253 161.697 321.237 161.696 321.221C161.695 321.205 161.69 321.19 161.682 321.175C161.674 321.161 161.663 321.148 161.649 321.138C161.636 321.128 161.621 321.12 161.604 321.116C160.795 320.833 160.012 320.488 159.262 320.087C159.232 320.071 159.196 320.066 159.163 320.074C159.129 320.082 159.101 320.103 159.083 320.13C159.074 320.144 159.069 320.159 159.067 320.175C159.065 320.191 159.067 320.207 159.071 320.222C159.076 320.237 159.084 320.251 159.095 320.264C159.105 320.276 159.118 320.286 159.133 320.294C159.897 320.708 160.697 321.06 161.526 321.345L161.565 321.352Z" fill="#AE253D"/>
<path d="M161.566 322.886C161.597 322.886 161.626 322.877 161.65 322.859C161.673 322.841 161.689 322.816 161.695 322.788C161.701 322.756 161.693 322.723 161.673 322.697C161.653 322.67 161.623 322.652 161.59 322.646C160.797 322.493 160.034 322.23 159.326 321.864C159.296 321.848 159.26 321.844 159.226 321.852C159.193 321.86 159.164 321.88 159.146 321.908C159.129 321.935 159.124 321.968 159.133 321.998C159.142 322.029 159.164 322.055 159.193 322.071C159.923 322.454 160.714 322.728 161.535 322.882L161.566 322.886Z" fill="#AE253D"/>
<path d="M161.277 324.635C161.308 324.634 161.338 324.623 161.361 324.603C161.384 324.584 161.398 324.557 161.401 324.528C161.405 324.499 161.397 324.47 161.379 324.446C161.361 324.423 161.335 324.406 161.305 324.399C160.607 324.239 159.941 323.979 159.329 323.628C159.3 323.611 159.265 323.605 159.232 323.612C159.198 323.619 159.169 323.638 159.15 323.664C159.141 323.677 159.134 323.692 159.131 323.708C159.128 323.724 159.128 323.74 159.132 323.755C159.135 323.771 159.142 323.786 159.152 323.799C159.162 323.812 159.175 323.823 159.189 323.831C159.826 324.2 160.521 324.471 161.25 324.635H161.277Z" fill="#AE253D"/>
<path d="M169.73 318.553L173.7 317.633C173.7 317.633 175.94 322.808 175.94 322.979C175.94 323.15 174.82 327.708 174.68 327.708C174.183 327.318 173.711 326.902 173.267 326.46L169.73 318.553Z" fill="#4CB7D8"/>
<path d="M177.015 315.175L178.966 314.884C179.028 314.873 179.083 314.841 179.119 314.793C179.155 314.746 179.171 314.687 179.162 314.629C179.151 314.571 179.116 314.52 179.065 314.486C179.014 314.452 178.95 314.438 178.888 314.447L177.237 314.695L173.549 309.406C173.533 309.382 173.511 309.361 173.486 309.344C173.461 309.327 173.432 309.316 173.402 309.31C173.372 309.303 173.34 309.303 173.31 309.308C173.279 309.314 173.251 309.325 173.225 309.341C173.199 309.356 173.177 309.377 173.159 309.4C173.141 309.424 173.129 309.45 173.122 309.478C173.116 309.506 173.115 309.535 173.121 309.564C173.126 309.592 173.138 309.619 173.155 309.643L177.015 315.175Z" fill="#090028"/>
<path d="M176.298 302.271C176.267 302.27 176.237 302.263 176.209 302.25C176.181 302.237 176.157 302.218 176.138 302.194C174.671 300.227 173.406 300.223 173.406 300.223C173.354 300.223 173.305 300.204 173.268 300.17C173.232 300.136 173.211 300.089 173.211 300.041C173.211 299.993 173.232 299.947 173.268 299.913C173.305 299.879 173.354 299.859 173.406 299.859C173.476 299.859 174.882 299.885 176.447 301.983C176.461 302.003 176.472 302.025 176.477 302.048C176.483 302.071 176.483 302.096 176.478 302.119C176.473 302.142 176.464 302.165 176.45 302.184C176.435 302.204 176.417 302.221 176.396 302.234C176.368 302.255 176.334 302.268 176.298 302.271V302.271Z" fill="#090028"/>
<path d="M175.879 304.116C175.843 304.116 175.807 304.107 175.776 304.09C175.745 304.072 175.72 304.048 175.703 304.018C174.579 301.908 173.334 301.701 173.322 301.698C173.27 301.691 173.224 301.665 173.192 301.626C173.161 301.587 173.147 301.538 173.154 301.49C173.161 301.442 173.189 301.398 173.231 301.369C173.272 301.34 173.325 301.327 173.377 301.334C173.435 301.334 174.829 301.556 176.054 303.851C176.066 303.872 176.072 303.896 176.074 303.919C176.076 303.943 176.072 303.967 176.064 303.99C176.055 304.013 176.042 304.033 176.025 304.051C176.008 304.069 175.988 304.084 175.965 304.094C175.939 304.109 175.909 304.116 175.879 304.116Z" fill="#090028"/>
<path d="M164.912 318.875C164.881 318.882 164.849 318.879 164.821 318.866C164.792 318.853 164.771 318.83 164.759 318.803C164.747 318.775 164.747 318.745 164.758 318.717C164.769 318.69 164.79 318.667 164.818 318.653C165.549 318.221 166.241 317.734 166.887 317.198C166.9 317.188 166.914 317.18 166.931 317.174C166.947 317.169 166.964 317.167 166.981 317.168C166.998 317.169 167.015 317.173 167.03 317.18C167.045 317.187 167.059 317.197 167.07 317.209C167.081 317.221 167.09 317.235 167.096 317.25C167.101 317.265 167.103 317.281 167.102 317.297C167.101 317.313 167.097 317.328 167.089 317.342C167.082 317.357 167.071 317.37 167.058 317.38C166.402 317.93 165.697 318.428 164.951 318.868L164.912 318.875Z" fill="#AE253D"/>
<path d="M165.244 320.375C165.214 320.381 165.183 320.377 165.156 320.363C165.129 320.35 165.107 320.328 165.096 320.302C165.083 320.273 165.083 320.24 165.096 320.211C165.109 320.181 165.134 320.158 165.166 320.146C165.909 319.843 166.598 319.437 167.211 318.942C167.224 318.931 167.238 318.923 167.254 318.918C167.27 318.912 167.287 318.91 167.304 318.91C167.321 318.911 167.338 318.915 167.354 318.921C167.369 318.928 167.383 318.938 167.394 318.949C167.406 318.961 167.415 318.975 167.421 318.99C167.427 319.005 167.429 319.02 167.429 319.036C167.428 319.052 167.424 319.068 167.417 319.082C167.409 319.097 167.399 319.11 167.387 319.12C166.753 319.635 166.038 320.056 165.267 320.368L165.244 320.375Z" fill="#AE253D"/>
<path d="M165.902 322.03C165.873 322.035 165.843 322.031 165.817 322.019C165.791 322.006 165.77 321.986 165.758 321.961C165.751 321.947 165.747 321.931 165.746 321.915C165.746 321.899 165.749 321.883 165.755 321.868C165.761 321.853 165.77 321.84 165.782 321.828C165.794 321.817 165.808 321.807 165.824 321.801C166.472 321.51 167.067 321.127 167.588 320.666C167.6 320.654 167.614 320.645 167.63 320.639C167.646 320.632 167.663 320.629 167.68 320.629C167.697 320.629 167.714 320.632 167.73 320.639C167.746 320.645 167.76 320.654 167.772 320.666C167.784 320.677 167.794 320.691 167.8 320.705C167.807 320.72 167.81 320.736 167.81 320.752C167.81 320.768 167.807 320.783 167.8 320.798C167.794 320.813 167.784 320.826 167.772 320.837C167.228 321.317 166.606 321.715 165.929 322.016L165.902 322.03Z" fill="#AE253D"/>
<path d="M148.174 315.058L146.195 315.153C146.133 315.155 146.071 315.134 146.025 315.095C145.978 315.055 145.95 315.001 145.946 314.942C145.944 314.913 145.949 314.884 145.959 314.857C145.97 314.83 145.986 314.805 146.007 314.783C146.028 314.762 146.054 314.745 146.082 314.733C146.11 314.721 146.141 314.714 146.172 314.713L147.846 314.633L150.278 308.748C150.305 308.7 150.351 308.662 150.406 308.643C150.46 308.624 150.521 308.624 150.576 308.644C150.63 308.664 150.675 308.702 150.702 308.75C150.728 308.799 150.734 308.855 150.719 308.908L148.174 315.058Z" fill="#090028"/>
<path d="M156.452 317.309L154.411 326.401C154.411 326.401 150.211 323.219 150.211 322.87C150.211 322.521 151.542 318.283 151.682 318.203C151.823 318.123 156.452 317.309 156.452 317.309Z" fill="#4CB7D8"/>
<path d="M154.549 326.655H154.342C150.691 326.324 147.116 325.478 143.737 324.146C143.709 324.135 143.683 324.118 143.661 324.098C143.64 324.077 143.623 324.053 143.611 324.026C143.599 324 143.594 323.971 143.594 323.942C143.594 323.913 143.6 323.885 143.612 323.859C143.624 323.832 143.642 323.808 143.664 323.788C143.686 323.768 143.712 323.752 143.741 323.741C143.769 323.73 143.8 323.725 143.831 323.725C143.862 323.725 143.892 323.731 143.921 323.742C147.188 325.022 150.638 325.85 154.163 326.201L155.911 317.614L147.937 315.068C147.878 315.048 147.83 315.008 147.803 314.955C147.776 314.903 147.772 314.843 147.793 314.788C147.813 314.733 147.857 314.688 147.913 314.662C147.969 314.637 148.034 314.634 148.093 314.653L156.454 317.319L154.549 326.655Z" fill="#090028"/>
<path d="M170.772 326.655H170.979C174.63 326.324 178.205 325.478 181.584 324.146C181.612 324.135 181.638 324.118 181.66 324.098C181.681 324.077 181.699 324.053 181.71 324.026C181.722 324 181.728 323.971 181.727 323.942C181.727 323.913 181.721 323.885 181.709 323.859C181.697 323.832 181.679 323.808 181.657 323.788C181.635 323.768 181.609 323.752 181.58 323.741C181.552 323.73 181.521 323.725 181.49 323.725C181.459 323.725 181.429 323.731 181.4 323.742C178.133 325.022 174.683 325.85 171.158 326.201L169.41 317.614L177.384 315.068C177.443 315.048 177.491 315.008 177.518 314.955C177.545 314.903 177.549 314.843 177.528 314.788C177.508 314.733 177.464 314.688 177.408 314.662C177.352 314.637 177.287 314.634 177.228 314.653L168.867 317.319L170.772 326.655Z" fill="#090028"/>
<path d="M181.645 403.726L161.738 394.815L163.651 391.108C163.651 391.108 166.016 389.977 167.749 391.872C167.749 391.872 169.97 395.509 174.256 394.225L180.025 400.448C180.025 400.448 182.296 402.463 181.645 403.726Z" fill="#E2F2F1"/>
<path d="M181.113 405.035L160.98 396.018C160.939 395.999 160.902 395.974 160.871 395.942C160.841 395.91 160.818 395.873 160.802 395.833C160.787 395.793 160.781 395.751 160.783 395.708C160.786 395.666 160.797 395.624 160.817 395.586L161.433 394.393C161.473 394.315 161.544 394.256 161.631 394.227C161.718 394.199 161.813 394.204 161.896 394.241L182.03 403.258C182.236 403.35 182.394 403.515 182.47 403.716C182.546 403.917 182.532 404.138 182.433 404.331L182.264 404.658C182.165 404.85 181.988 404.998 181.772 405.069C181.556 405.139 181.319 405.127 181.113 405.035Z" fill="#090028"/>
<path d="M144.131 336.484H180.088C181.271 336.484 182.23 335.59 182.23 334.488V316.448C182.23 315.345 181.271 314.451 180.088 314.451H144.131C142.948 314.451 141.988 315.345 141.988 316.448V334.488C141.988 335.59 142.948 336.484 144.131 336.484Z" fill="#2A1968"/>
<path d="M160.086 323.612C160.086 323.315 160.18 323.026 160.357 322.779C160.534 322.533 160.785 322.341 161.079 322.227C161.373 322.114 161.696 322.084 162.008 322.142C162.32 322.2 162.606 322.343 162.831 322.552C163.056 322.762 163.209 323.029 163.271 323.319C163.333 323.61 163.301 323.911 163.18 324.185C163.058 324.459 162.852 324.693 162.587 324.858C162.323 325.022 162.012 325.11 161.694 325.11C161.483 325.111 161.273 325.072 161.078 324.997C160.883 324.922 160.705 324.812 160.556 324.672C160.406 324.533 160.288 324.368 160.207 324.186C160.127 324.004 160.085 323.809 160.086 323.612V323.612Z" fill="white"/>
<g filter="url(#filter0_d_70_1059)">
<path d="M465.582 357.086L462.354 358.384L458.763 359.97C458.763 359.97 453.19 360.872 453.108 360.858L453.572 361.629C446.656 362.425 424.852 363.258 421.273 363.633C419.115 363.855 417.042 366.357 415.734 368.306L417.506 369.423C417.506 369.423 436.546 368.641 436.507 369.016C436.507 369.132 435.961 370.892 435.125 373.198C446.886 373.926 463.353 373.86 466.41 369.343C468.919 365.64 466.472 360.323 465.582 357.086Z" fill="white"/>
<path d="M392.137 436.243L406.606 436.425L406.813 423.822L392.402 422.16L392.137 436.243Z" fill="white"/>
<path d="M436.611 391.784C436.611 391.784 449.066 391.977 457.794 391.697C460.597 391.609 463.091 391.791 464.566 391.486C470.643 390.227 472.138 372.554 465.241 361.727C458.344 350.899 434.203 384.146 434.203 384.146L436.611 391.784Z" fill="#BF0830"/>
<path d="M414.078 436.724L428.543 436.909L428.754 424.303L414.344 422.641L414.078 436.724Z" fill="white"/>
<path d="M423.205 368.124C423.205 368.124 392.612 369.943 391.73 373.238C390.848 376.533 388.318 411.533 390.208 426.463C390.208 426.463 401.816 427.209 407.382 425.954L408.736 389.547L417.897 388.565L438.888 365.051L423.205 368.124Z" fill="#890421"/>
<path d="M437.325 367.344C437.325 367.344 413.73 373.549 412.848 376.84C411.966 380.132 409.452 411.367 411.345 426.305C411.345 426.305 423.836 426.97 429.378 425.716L430.873 391.37L436.255 391.545L449.312 370.141L437.325 367.344Z" fill="#BF0830"/>
<path d="M422.466 426.95C427.982 426.95 429.949 426.179 430.043 426.139L430.164 426.088L431.612 391.535L429.332 392.535L429.512 392.899L431.159 392.172L429.75 425.811C429.153 426.004 426.292 426.771 419.535 426.48V426.877C420.597 426.931 421.577 426.95 422.466 426.95Z" fill="#090028"/>
<path d="M427.636 419.501C428.226 417.384 428.394 396.747 428.417 395.859H427.984C427.984 396.074 427.808 417.318 427.23 419.395L427.636 419.501Z" fill="#090028"/>
<path d="M405.711 390.321C408.506 389.477 412.346 389.35 412.397 389.35V388.953C412.358 388.953 408.451 389.084 405.594 389.942L405.711 390.321Z" fill="#090028"/>
<path d="M399.418 426.875C402.104 426.898 404.785 426.654 407.415 426.148L407.575 426.112L408.941 389.297L407.197 390.606L407.462 390.915L408.481 390.152L407.158 425.795C404.473 426.291 401.74 426.52 399.004 426.479V426.875H399.418Z" fill="#090028"/>
<path d="M405.347 420.271C405.933 417.073 405.375 395.444 405.347 394.523H404.922C404.922 394.749 405.503 417.037 404.922 420.198L405.347 420.271Z" fill="#090028"/>
<path d="M445.986 392.151C451.42 392.151 457.934 391.98 465.26 391.463L465.229 391.07C443.406 392.602 428.769 391.07 428.625 391.07L428.578 391.463C428.672 391.474 435.198 392.151 445.986 392.151Z" fill="#090028"/>
<path d="M438.522 356.5C438.1 356.5 421.152 363.287 421.152 363.287L424.568 369.375L434.08 367.43L438.522 356.5Z" fill="#2A1968"/>
<path d="M463.074 328.198C463.074 328.198 470.28 327.961 473.722 329.78C478.855 332.489 477.024 348.013 477.024 348.013C477.024 348.013 472.664 345.794 472.399 345.056C472.134 344.317 463.074 328.198 463.074 328.198Z" fill="#2A1968"/>
<path d="M464.815 361.892H464.788L459.487 363.023C459.436 363.034 459.381 363.025 459.336 362.999C459.291 362.973 459.259 362.931 459.247 362.883C459.235 362.835 459.245 362.784 459.273 362.742C459.301 362.7 459.346 362.67 459.398 362.659L464.702 361.528C464.727 361.523 464.753 361.522 464.779 361.526C464.804 361.53 464.828 361.539 464.85 361.552C464.872 361.564 464.891 361.581 464.905 361.601C464.92 361.621 464.931 361.643 464.936 361.666C464.95 361.711 464.946 361.759 464.923 361.801C464.901 361.843 464.862 361.875 464.815 361.892V361.892Z" fill="#090028"/>
<path d="M467.59 358.957L464.362 360.259L460.771 361.845C460.771 361.845 455.197 362.747 455.115 362.729L455.58 363.503C448.663 364.3 426.86 365.133 423.281 365.504C421.122 365.729 419.05 368.228 417.742 370.181L419.514 371.298C419.514 371.298 438.554 370.516 438.515 370.887C438.515 371.007 437.965 372.767 437.133 375.073C448.89 375.8 465.357 375.735 468.417 371.218C470.919 367.504 468.48 362.187 467.59 358.957Z" fill="#F9B59D"/>
<path d="M470.042 329.411C465.948 328.883 455.14 328.52 455.14 328.52C455.14 328.52 453.707 328.883 454.164 328.672C442.232 330.636 440.913 338.882 440.913 338.882L435.085 362.712L428.602 363.039C426.506 366.746 428.044 376.737 428.044 376.737L459.445 380.035C459.445 380.035 466.233 381.076 471.974 374.216C475.768 369.677 477.049 355.743 477.049 345.563C477.06 345.563 476.408 330.229 470.042 329.411Z" fill="#2A1968"/>
<path d="M382.09 347.871H411.988L422.414 372.614H392.519L382.09 347.871Z" fill="#FCE6CF"/>
<path d="M422.413 372.614H420.855L410.426 347.871H411.987L422.413 372.614Z" fill="#F3CBC2"/>
<path d="M401.64 359.455C402.053 360.593 401.749 361.717 400.96 361.968C400.172 362.219 399.196 361.499 398.782 360.36C398.369 359.222 398.673 358.102 399.462 357.851C400.25 357.6 401.226 358.32 401.64 359.455Z" fill="#E2F2F1"/>
<path d="M432.296 370.605H421.129V372.606H432.296C432.581 372.606 432.854 372.501 433.055 372.313C433.256 372.125 433.369 371.871 433.369 371.606C433.369 371.34 433.256 371.086 433.055 370.898C432.854 370.711 432.581 370.605 432.296 370.605Z" fill="#F3CBC2"/>
<path d="M429.475 371.297H422.418V371.61H429.475V371.297Z" fill="#E23E3D"/>
<path d="M459.495 363.125C459.457 363.136 459.416 363.136 459.378 363.125C459.352 363.12 459.328 363.11 459.307 363.096C459.286 363.081 459.268 363.063 459.254 363.043C459.241 363.022 459.232 362.999 459.228 362.975C459.225 362.951 459.227 362.926 459.234 362.903C459.265 362.775 462.547 349.773 463.945 341.593C463.948 341.569 463.957 341.546 463.971 341.525C463.984 341.504 464.002 341.486 464.023 341.472C464.044 341.458 464.068 341.448 464.094 341.442C464.119 341.437 464.145 341.436 464.171 341.44C464.223 341.448 464.269 341.475 464.299 341.514C464.33 341.554 464.343 341.603 464.335 341.651C462.938 349.845 459.651 362.859 459.616 362.99C459.609 363.02 459.595 363.048 459.574 363.071C459.553 363.095 459.526 363.113 459.495 363.125V363.125Z" fill="#090028"/>
<path d="M439.18 362.913C439.137 362.926 439.091 362.926 439.047 362.913C438.998 362.897 438.957 362.864 438.933 362.821C438.909 362.777 438.904 362.727 438.919 362.68C438.969 362.535 443.837 348.132 444.855 343.164C444.865 343.116 444.894 343.073 444.937 343.045C444.981 343.017 445.034 343.006 445.086 343.015C445.138 343.024 445.183 343.052 445.213 343.093C445.243 343.134 445.255 343.184 445.246 343.233C444.223 348.23 439.348 362.648 439.297 362.793C439.289 362.82 439.274 362.845 439.254 362.866C439.233 362.887 439.208 362.903 439.18 362.913Z" fill="#090028"/>
<path d="M458.976 335.506L458.508 335.542C458.486 335.544 458.465 335.542 458.444 335.536C458.423 335.53 458.404 335.519 458.388 335.506C458.371 335.493 458.358 335.477 458.348 335.458C458.339 335.44 458.333 335.42 458.332 335.4C458.331 335.38 458.334 335.36 458.34 335.341C458.347 335.322 458.358 335.304 458.372 335.289C458.386 335.274 458.403 335.261 458.423 335.252C458.442 335.243 458.463 335.238 458.485 335.236C465.311 334.789 466.58 330.144 466.592 330.083C466.599 330.043 466.623 330.008 466.658 329.985C466.693 329.962 466.737 329.953 466.779 329.959C466.8 329.962 466.82 329.968 466.839 329.978C466.857 329.988 466.873 330.002 466.886 330.018C466.899 330.034 466.908 330.052 466.913 330.071C466.918 330.09 466.919 330.11 466.916 330.13C466.908 330.181 465.647 334.862 458.976 335.506Z" fill="#090028"/>
<path d="M437.792 359.474C437.748 359.49 437.699 359.491 437.655 359.476C437.61 359.461 437.573 359.432 437.55 359.394L436.219 357.269V357.197L440.707 338.848C441.084 337.143 441.886 335.546 443.049 334.185C444.872 331.973 448.467 329.162 455.243 328.322C455.295 328.316 455.348 328.329 455.39 328.359C455.431 328.389 455.459 328.433 455.465 328.482C455.469 328.506 455.468 328.53 455.462 328.554C455.455 328.577 455.444 328.599 455.428 328.618C455.413 328.638 455.393 328.654 455.371 328.666C455.348 328.678 455.323 328.686 455.298 328.689C448.662 329.511 445.149 332.246 443.377 334.392C442.248 335.713 441.461 337.259 441.078 338.909V338.909L436.609 357.193L437.862 359.194C437.875 359.215 437.884 359.238 437.887 359.263C437.891 359.287 437.889 359.312 437.882 359.335C437.875 359.359 437.863 359.381 437.847 359.4C437.831 359.42 437.811 359.436 437.788 359.448L437.792 359.474Z" fill="#090028"/>
<path d="M430.769 359.543C430.72 359.56 430.667 359.558 430.619 359.538C430.572 359.519 430.534 359.483 430.515 359.438C430.505 359.415 430.5 359.391 430.5 359.367C430.5 359.343 430.505 359.319 430.516 359.296C430.526 359.274 430.541 359.254 430.559 359.237C430.578 359.22 430.6 359.206 430.625 359.198L436.354 357.066C436.404 357.049 436.458 357.051 436.506 357.071C436.554 357.09 436.592 357.127 436.612 357.172C436.631 357.217 436.631 357.268 436.61 357.313C436.59 357.358 436.551 357.393 436.503 357.412L430.773 359.54L430.769 359.543Z" fill="#090028"/>
<path d="M428.604 363.043C428.604 363.043 426.531 367.6 428.046 376.74L435.626 372.95L433.374 366.124L428.604 363.043Z" fill="#2A1968"/>
<path d="M466.334 363.289C466.31 363.293 466.285 363.293 466.26 363.289C465.975 363.289 437.923 362.497 428.743 363.202C428.516 363.762 427.482 366.665 427.771 371.975C427.772 371.999 427.769 372.023 427.76 372.046C427.751 372.069 427.738 372.09 427.721 372.108C427.703 372.126 427.682 372.14 427.658 372.151C427.635 372.161 427.609 372.167 427.583 372.168C427.531 372.17 427.479 372.153 427.44 372.12C427.401 372.087 427.377 372.042 427.373 371.993C427.045 365.977 428.364 363.075 428.423 362.955L428.469 362.853H428.587C437.658 362.126 465.987 362.922 466.272 362.929C466.298 362.93 466.324 362.936 466.348 362.946C466.371 362.956 466.393 362.971 466.41 362.989C466.428 363.007 466.442 363.028 466.451 363.051C466.46 363.073 466.464 363.098 466.463 363.122C466.462 363.159 466.45 363.195 466.427 363.224C466.404 363.254 466.371 363.277 466.334 363.289V363.289Z" fill="#090028"/>
<path d="M453.511 314.653L453.289 322.695C453.289 322.695 453.101 325.277 455.517 325.659L454.971 329.096C454.867 329.716 455.001 330.35 455.347 330.889C455.694 331.427 456.232 331.835 456.868 332.042C457.603 332.281 458.373 332.411 459.151 332.427C461.926 332.497 463.484 330.609 463.741 329.63C463.999 328.652 463.433 324.018 463.433 324.018L463.581 321.742L463.511 312.918L453.511 314.653Z" fill="white"/>
<path d="M461.214 323.598C461.214 323.598 460.929 327.922 455.121 328.195L455.511 325.649C455.511 325.649 459.266 326.453 461.214 323.598Z" fill="#E8EBF8"/>
<path d="M460.086 319.032C460.101 319.033 460.116 319.031 460.13 319.026C460.144 319.021 460.157 319.013 460.168 319.003C460.189 318.983 460.201 318.955 460.201 318.927C460.201 318.898 460.189 318.871 460.168 318.85C460.168 318.85 458.607 317.283 457.119 318.338C457.098 318.358 457.086 318.385 457.086 318.414C457.086 318.442 457.098 318.47 457.119 318.49C457.141 318.51 457.169 318.521 457.199 318.521C457.229 318.521 457.258 318.51 457.279 318.49C458.595 317.556 459.957 318.919 460.012 318.978C460.018 318.992 460.029 319.004 460.042 319.013C460.054 319.023 460.07 319.029 460.086 319.032V319.032Z" fill="#090028"/>
<path d="M464.103 318.003L461.593 318.425L461.133 318.85C461.133 318.85 461.457 314.958 461.949 314.202C462.44 313.445 464.103 318.003 464.103 318.003Z" fill="#090028"/>
<path d="M455.348 318.275C455.365 318.275 455.382 318.272 455.397 318.266C455.413 318.26 455.427 318.25 455.438 318.239C455.459 318.218 455.471 318.191 455.471 318.162C455.471 318.134 455.459 318.106 455.438 318.086C455.391 318.049 454.314 317.144 453.599 317.682C453.586 317.691 453.574 317.702 453.565 317.715C453.556 317.727 453.551 317.742 453.548 317.757C453.546 317.772 453.547 317.788 453.551 317.802C453.556 317.817 453.563 317.831 453.574 317.843C453.584 317.854 453.597 317.864 453.612 317.871C453.627 317.878 453.643 317.881 453.659 317.882C453.675 317.883 453.692 317.88 453.707 317.875C453.722 317.869 453.736 317.86 453.748 317.849C454.306 317.428 455.27 318.239 455.282 318.246C455.3 318.261 455.323 318.271 455.348 318.275V318.275Z" fill="#090028"/>
<path d="M460.61 319.369C460.599 319.752 460.711 320.13 460.93 320.454C461.15 320.778 461.468 321.034 461.844 321.19C462.22 321.346 462.637 321.395 463.042 321.33C463.448 321.265 463.823 321.089 464.122 320.825C464.42 320.562 464.628 320.221 464.719 319.847C464.81 319.473 464.78 319.083 464.632 318.725C464.485 318.367 464.227 318.058 463.891 317.836C463.555 317.615 463.156 317.491 462.745 317.481C462.472 317.474 462.2 317.517 461.944 317.608C461.689 317.699 461.455 317.836 461.257 318.012C461.058 318.187 460.899 318.397 460.788 318.63C460.677 318.863 460.617 319.114 460.61 319.369V319.369Z" fill="white"/>
<path d="M463.027 320.51C463.215 320.509 463.398 320.451 463.548 320.346C463.698 320.241 463.808 320.093 463.862 319.925C463.926 319.765 463.931 319.591 463.876 319.428C463.821 319.266 463.708 319.126 463.558 319.03C463.396 318.929 463.206 318.875 463.011 318.875C462.816 318.875 462.626 318.929 462.465 319.03C462.542 318.83 462.697 318.664 462.898 318.565C463.191 318.448 463.521 318.436 463.823 318.532C463.838 318.537 463.853 318.536 463.867 318.53C463.881 318.523 463.892 318.513 463.897 318.499C463.9 318.492 463.902 318.485 463.902 318.478C463.901 318.471 463.9 318.464 463.896 318.457C463.893 318.451 463.888 318.445 463.882 318.44C463.876 318.435 463.869 318.432 463.862 318.43C463.529 318.325 463.166 318.338 462.843 318.466C462.705 318.54 462.584 318.64 462.489 318.76C462.395 318.879 462.328 319.016 462.293 319.161L462.238 319.347L462.39 319.216C462.536 319.087 462.724 319.007 462.924 318.988C463.124 318.97 463.325 319.014 463.495 319.114C463.622 319.198 463.717 319.318 463.763 319.457C463.81 319.596 463.806 319.745 463.753 319.881C463.709 320.029 463.615 320.158 463.485 320.251C463.354 320.344 463.195 320.394 463.031 320.394V320.394C463.018 320.397 463.007 320.404 462.999 320.413C462.991 320.423 462.987 320.435 462.987 320.447C462.987 320.459 462.991 320.47 462.999 320.48C463.007 320.49 463.018 320.496 463.031 320.499L463.027 320.51Z" fill="#AE253D"/>
<path d="M456.483 321.562C456.496 321.563 456.508 321.56 456.518 321.555C456.529 321.549 456.537 321.54 456.542 321.529C456.546 321.516 456.545 321.502 456.538 321.489C456.532 321.476 456.521 321.466 456.507 321.46L455.336 321.075L455.773 318.529C455.77 318.517 455.762 318.507 455.752 318.5C455.742 318.492 455.729 318.488 455.716 318.488C455.703 318.488 455.691 318.492 455.681 318.5C455.67 318.507 455.663 318.517 455.66 318.529L455.207 321.148L456.448 321.562H456.483Z" fill="#AE253D"/>
<path d="M457.33 322.636C457.295 322.636 455.043 322.523 455.043 322.523C455.043 322.523 455.301 323.4 456.136 323.44C456.971 323.48 457.33 322.636 457.33 322.636Z" fill="#FBFDFC"/>
<path d="M464.109 318.002C464.109 318.002 464.917 314.241 463.719 312.805C462.521 311.368 455.467 308.735 454.585 309.415C453.703 310.095 454.542 310.975 454.542 310.975C454.542 310.975 451.705 310.051 450.994 312.397C450.284 314.743 456.4 315.896 460.101 314.881C461.766 315.486 463.174 316.582 464.109 318.002V318.002Z" fill="#090028"/>
<path d="M464.913 379.484C464.485 379.636 464.048 379.765 463.605 379.873C462.245 380.24 460.821 380.356 459.413 380.215C459.387 380.211 459.362 380.202 459.34 380.189C459.318 380.177 459.298 380.16 459.283 380.14C459.268 380.12 459.257 380.097 459.251 380.073C459.245 380.049 459.245 380.025 459.249 380.001C459.259 379.953 459.287 379.91 459.329 379.882C459.372 379.854 459.424 379.841 459.475 379.848C460.836 379.978 462.212 379.865 463.527 379.513C465.693 378.975 468.89 377.596 471.813 374.101C475.486 369.711 476.829 356.203 476.86 345.968C476.854 345.941 476.855 345.913 476.862 345.887C476.869 345.86 476.883 345.835 476.901 345.814C476.92 345.793 476.944 345.776 476.97 345.764C476.997 345.752 477.026 345.746 477.055 345.746C477.085 345.746 477.114 345.752 477.141 345.764C477.167 345.776 477.191 345.793 477.209 345.814C477.228 345.835 477.241 345.86 477.249 345.887C477.256 345.913 477.256 345.941 477.251 345.968C477.215 356.261 475.853 369.868 472.122 374.338C469.671 377.262 467.012 378.742 464.913 379.484Z" fill="#090028"/>
<path d="M407.614 438.051L395.331 440.186L389.343 435.992L381.24 442.615L379.288 442.957C378.957 443.009 378.656 443.166 378.434 443.401C378.213 443.636 378.086 443.936 378.074 444.248C378.071 444.445 378.114 444.639 378.201 444.818C378.289 444.997 378.417 445.156 378.578 445.283C378.739 445.409 378.929 445.501 379.132 445.551C379.336 445.601 379.55 445.608 379.757 445.572L408.324 440.611C408.424 440.593 408.512 440.539 408.57 440.461C408.627 440.382 408.65 440.286 408.633 440.193L408.285 438.458C408.27 438.39 408.241 438.325 408.199 438.268C408.157 438.21 408.104 438.161 408.041 438.123C407.979 438.086 407.909 438.06 407.835 438.047C407.762 438.035 407.687 438.036 407.614 438.051V438.051Z" fill="#A22641"/>
<path d="M407.509 438.084L406.569 433.385C406.569 433.385 403.981 431.148 401.104 433.021C401.104 433.021 396.971 437 392.006 433.916L382.439 440.041C382.439 440.041 379.757 441.426 379.27 442.99L407.509 438.084Z" fill="#100E68"/>
<path d="M429.294 438.076L416.882 439.432L411.202 434.875L402.643 440.989L400.66 441.204C400.325 441.235 400.013 441.373 399.775 441.595C399.537 441.816 399.387 442.107 399.352 442.418C399.335 442.614 399.365 442.811 399.44 442.994C399.514 443.178 399.631 443.344 399.783 443.48C399.934 443.617 400.116 443.72 400.316 443.783C400.516 443.846 400.728 443.867 400.937 443.844L429.797 440.687C429.899 440.675 429.991 440.627 430.055 440.552C430.118 440.477 430.148 440.382 430.137 440.287L429.914 438.534C429.906 438.466 429.884 438.4 429.848 438.34C429.812 438.28 429.764 438.227 429.706 438.184C429.649 438.142 429.583 438.11 429.512 438.092C429.441 438.073 429.367 438.068 429.294 438.076V438.076Z" fill="#D95F76"/>
<path d="M429.189 438.101L428.591 433.351C428.591 433.351 426.172 430.958 423.158 432.646C423.158 432.646 418.744 436.355 414.017 432.969L404.025 438.476C404.025 438.476 401.25 439.691 400.648 441.222L429.189 438.101Z" fill="#1F1587"/>
</g>
<path d="M89.1955 419.457L92.0722 420.614L95.2689 422.028C95.2689 422.028 100.238 422.832 100.308 422.814L99.8942 423.505C106.057 424.214 125.48 424.96 128.669 425.287C130.589 425.487 132.439 427.713 133.602 429.452L132.041 430.448C132.041 430.448 115.078 429.75 115.113 430.085C115.113 430.19 115.601 431.761 116.346 433.813C105.87 434.464 91.1979 434.402 88.4734 430.379C86.2252 427.095 88.4032 422.345 89.1955 419.457Z" fill="white"/>
<path d="M155.084 490.404L142.195 490.567L142.012 479.34L154.849 477.859L155.084 490.404Z" fill="white"/>
<path d="M115.002 450.372C115.002 450.372 103.909 450.543 96.1302 450.296C93.6361 450.216 91.4151 450.38 90.0998 450.107C84.686 448.987 83.3511 433.245 89.4987 423.6C95.6462 413.954 117.149 443.567 117.149 443.567L115.002 450.372Z" fill="#0B1249"/>
<path d="M135.072 490.404L122.183 490.567L122 479.34L134.838 477.859L135.072 490.404Z" fill="white"/>
<path d="M126.95 429.297C126.95 429.297 154.202 430.919 154.991 433.851C155.779 436.782 158.031 467.963 156.345 481.264C156.345 481.264 146.005 481.926 141.06 480.81L139.854 448.378L131.692 447.505L112.992 426.559L126.95 429.297Z" fill="#2836A5"/>
<path d="M113.855 428.816C113.855 428.816 134.874 434.341 135.658 437.276C136.443 440.211 138.687 468.032 137.001 481.333C137.001 481.333 125.881 481.925 120.935 480.809L119.604 450.213L114.807 450.37L103.18 431.304L113.855 428.816Z" fill="#0B1249"/>
<path d="M142.531 449.069C140.04 448.32 136.609 448.207 136.574 448.204V447.84C136.609 447.84 140.087 447.956 142.636 448.724L142.531 449.069Z" fill="#090028"/>
<path d="M148.138 481.625C145.744 481.645 143.355 481.428 141.011 480.977L140.87 480.948L139.656 448.152L141.218 449.32L140.979 449.593L140.07 448.912L141.241 480.664C143.633 481.104 146.067 481.307 148.505 481.272V481.635L148.138 481.625Z" fill="#090028"/>
<path d="M142.856 475.744C142.333 472.896 142.829 453.627 142.856 452.809H143.246C143.246 453.009 142.727 472.864 143.246 475.675L142.856 475.744Z" fill="#090028"/>
<path d="M113.305 418.938C113.695 418.938 128.777 424.982 128.777 424.982L125.736 430.405L117.262 428.674L113.305 418.938Z" fill="#C43F5C"/>
<path d="M91.4293 393.732C91.4293 393.732 85.0086 393.521 81.9445 395.139C77.37 397.554 79.0016 411.379 79.0016 411.379C79.0016 411.379 82.8852 409.404 83.1233 408.746C83.3614 408.087 91.4293 393.732 91.4293 393.732Z" fill="#C43F5C"/>
<path d="M89.8668 423.743H89.8902L94.6131 424.747C94.6357 424.752 94.6591 424.753 94.6822 424.75C94.7052 424.747 94.7272 424.739 94.747 424.727C94.7667 424.716 94.7836 424.7 94.7968 424.683C94.8101 424.665 94.8192 424.645 94.8238 424.623C94.829 424.602 94.8297 424.58 94.8258 424.559C94.8219 424.538 94.8136 424.518 94.8013 424.499C94.7889 424.481 94.7729 424.465 94.754 424.453C94.7351 424.44 94.7137 424.432 94.6911 424.427L89.9683 423.419C89.926 423.414 89.8832 423.423 89.8474 423.445C89.8117 423.467 89.7853 423.499 89.7731 423.537C89.7609 423.575 89.7637 423.616 89.7808 423.653C89.798 423.689 89.8284 423.718 89.8668 423.736V423.743Z" fill="#090028"/>
<path d="M87.409 421.125L90.2818 422.285L93.4824 423.696C93.4824 423.696 98.4473 424.5 98.5176 424.486L98.1077 425.173C104.267 425.901 123.689 426.628 126.878 426.959C128.802 427.159 130.649 429.385 131.812 431.123L130.251 432.116C130.251 432.116 113.287 431.422 113.322 431.753C113.322 431.858 113.814 433.426 114.556 435.481C104.08 436.132 89.4075 436.07 86.6869 432.047C84.4348 428.748 86.6128 424.009 87.409 421.125Z" fill="#F9B59D"/>
<path d="M85.2177 394.805C88.8672 394.335 98.4886 394.012 98.4886 394.012C98.4886 394.012 99.765 394.321 99.359 394.146C109.991 395.896 111.166 403.239 111.166 403.239L116.354 424.465L122.13 424.756C124 428.059 122.626 436.959 122.626 436.959L94.6557 439.897C94.6557 439.897 88.6096 440.825 83.4926 434.715C80.1124 430.67 78.9609 418.26 78.9609 409.189C78.9648 409.193 79.5464 395.539 85.2177 394.805Z" fill="#C43F5C"/>
<path d="M163.57 411.238H136.938L127.648 433.279H154.28L163.57 411.238Z" fill="#090028"/>
<path d="M127.648 433.279H129.038L138.328 411.238H136.938L127.648 433.279Z" fill="#030014"/>
<path d="M146.16 421.556C145.793 422.567 146.062 423.568 146.765 423.793C147.468 424.019 148.326 423.375 148.717 422.36C149.107 421.345 148.818 420.349 148.116 420.123C147.413 419.898 146.531 420.538 146.16 421.556Z" fill="#E2F2F1"/>
<path d="M118.839 431.504H128.788V433.286H118.839C118.586 433.285 118.344 433.191 118.165 433.024C117.987 432.857 117.887 432.631 117.887 432.395V432.395C117.887 432.159 117.987 431.933 118.165 431.766C118.344 431.599 118.586 431.505 118.839 431.504V431.504Z" fill="#030014"/>
<path d="M121.364 432.395H127.648V432.114H121.364V432.395Z" fill="#090028"/>
<path d="M94.6163 424.838C94.6494 424.847 94.6846 424.847 94.7177 424.838C94.7403 424.833 94.7617 424.824 94.7806 424.812C94.7995 424.8 94.8156 424.784 94.8279 424.766C94.8402 424.747 94.8486 424.727 94.8525 424.706C94.8563 424.684 94.8556 424.663 94.8505 424.642C94.8192 424.525 91.8957 412.945 90.6545 405.656C90.6459 405.613 90.62 405.576 90.5821 405.551C90.5443 405.525 90.4975 405.515 90.4515 405.521C90.4283 405.524 90.4061 405.532 90.386 405.543C90.3659 405.554 90.3484 405.569 90.3346 405.587C90.3208 405.604 90.3109 405.624 90.3055 405.646C90.3001 405.667 90.2993 405.689 90.3032 405.711C91.5522 413.007 94.4757 424.598 94.507 424.714C94.5111 424.742 94.5235 424.769 94.5428 424.791C94.5621 424.812 94.5876 424.829 94.6163 424.838V424.838Z" fill="#916D47"/>
<path d="M112.71 424.649C112.748 424.66 112.789 424.66 112.827 424.649C112.849 424.642 112.87 424.631 112.887 424.617C112.905 424.603 112.92 424.586 112.93 424.567C112.941 424.548 112.947 424.527 112.949 424.505C112.951 424.483 112.948 424.462 112.94 424.441C112.897 424.314 108.561 411.49 107.655 407.056C107.651 407.035 107.642 407.014 107.63 406.996C107.617 406.978 107.601 406.962 107.581 406.95C107.562 406.938 107.54 406.929 107.518 406.925C107.495 406.921 107.471 406.921 107.449 406.925C107.426 406.929 107.404 406.937 107.384 406.949C107.365 406.961 107.348 406.976 107.335 406.994C107.322 407.012 107.313 407.032 107.308 407.053C107.304 407.075 107.304 407.096 107.308 407.118C108.217 411.57 112.562 424.412 112.605 424.539C112.612 424.564 112.626 424.586 112.644 424.605C112.662 424.624 112.685 424.639 112.71 424.649V424.649Z" fill="#090028"/>
<path d="M95.0859 400.23C95.2225 400.23 95.3591 400.256 95.5036 400.263C95.5417 400.265 95.5791 400.253 95.6082 400.23C95.6373 400.207 95.6557 400.175 95.6596 400.139C95.6619 400.103 95.6489 400.067 95.6234 400.039C95.598 400.012 95.562 399.994 95.523 399.99C89.4379 399.594 88.3099 395.444 88.3021 395.404C88.2988 395.386 88.2918 395.369 88.2813 395.353C88.2709 395.338 88.2573 395.325 88.2414 395.314C88.2254 395.304 88.2074 395.296 88.1883 395.292C88.1693 395.288 88.1496 395.288 88.1304 395.291C88.0927 395.297 88.0587 395.316 88.0361 395.344C88.0134 395.373 88.0038 395.409 88.0094 395.444C88.0172 395.488 89.1413 399.659 95.0859 400.23Z" fill="#090028"/>
<path d="M113.954 421.593C113.994 421.606 114.036 421.605 114.076 421.592C114.115 421.579 114.148 421.553 114.169 421.52L115.34 419.625V419.563L111.335 403.218C110.994 401.699 110.273 400.276 109.231 399.064C107.608 397.093 104.403 394.591 98.3688 393.841C98.3457 393.838 98.3222 393.84 98.2996 393.845C98.277 393.851 98.2559 393.86 98.2373 393.874C98.2188 393.887 98.2032 393.903 98.1916 393.922C98.18 393.941 98.1726 393.962 98.1697 393.983C98.1664 394.005 98.1678 394.027 98.1737 394.048C98.1796 394.069 98.1899 394.089 98.2041 394.106C98.2182 394.123 98.236 394.138 98.2562 394.148C98.2764 394.159 98.2988 394.166 98.322 394.169C104.227 394.896 107.354 397.337 108.939 399.261C109.946 400.436 110.647 401.813 110.988 403.283V403.283L114.969 419.574L113.853 421.353C113.83 421.39 113.823 421.435 113.835 421.477C113.847 421.519 113.875 421.555 113.915 421.578L113.954 421.593Z" fill="#090028"/>
<path d="M120.212 421.635C120.256 421.65 120.304 421.649 120.347 421.631C120.389 421.614 120.422 421.581 120.439 421.54C120.455 421.5 120.455 421.456 120.436 421.416C120.418 421.377 120.384 421.346 120.341 421.329L115.24 419.453C115.196 419.437 115.148 419.438 115.105 419.455C115.062 419.472 115.028 419.504 115.009 419.544C115.001 419.564 114.996 419.585 114.996 419.607C114.996 419.629 115.001 419.65 115.01 419.67C115.019 419.69 115.032 419.708 115.049 419.723C115.066 419.738 115.085 419.75 115.107 419.758L120.212 421.657V421.635Z" fill="#090028"/>
<path d="M122.136 424.762C122.136 424.762 123.982 428.824 122.631 436.964L115.883 433.589L117.889 427.508L122.136 424.762Z" fill="#C43F5C"/>
<path d="M88.5183 424.988C88.54 424.994 88.5629 424.994 88.5846 424.988C88.8383 424.988 113.831 424.283 122.008 424.912C122.211 425.414 123.132 427.996 122.874 432.724C122.872 432.768 122.889 432.811 122.92 432.844C122.951 432.876 122.995 432.896 123.042 432.899C123.065 432.9 123.088 432.897 123.11 432.889C123.132 432.882 123.152 432.871 123.169 432.856C123.186 432.842 123.199 432.824 123.209 432.805C123.219 432.785 123.225 432.764 123.226 432.743C123.518 427.385 122.343 424.799 122.297 424.69L122.254 424.603H122.148C114.065 423.959 88.8305 424.665 88.5807 424.672C88.5411 424.675 88.5038 424.691 88.4747 424.716C88.4456 424.742 88.4265 424.775 88.4202 424.812C88.4139 424.849 88.4209 424.886 88.4401 424.919C88.4593 424.951 88.4895 424.977 88.5261 424.992L88.5183 424.988Z" fill="#916D47"/>
<path d="M99.9477 381.664L100.147 388.829C100.147 388.829 100.315 391.128 98.1601 391.47L98.6519 394.532C98.7414 395.084 98.6216 395.648 98.3131 396.127C98.0046 396.606 97.5268 396.969 96.9618 397.155C96.3085 397.374 95.6223 397.497 94.9282 397.518C92.4575 397.577 91.0718 395.882 90.8416 395.023C90.6113 394.165 91.1148 390.026 91.1148 390.026L90.9821 388L91.0445 380.137L99.9477 381.664Z" fill="white"/>
<path d="M93.0938 389.633C93.0938 389.633 93.3475 393.485 98.5231 393.728L98.1601 391.47C98.1601 391.47 94.8268 392.179 93.0938 389.633Z" fill="#D9D9D9"/>
<path d="M94.086 385.573C94.0661 385.573 94.0465 385.568 94.0297 385.558C94.0128 385.548 93.9993 385.534 93.9907 385.517C93.9822 385.5 93.9789 385.482 93.9812 385.463C93.9835 385.445 93.9914 385.427 94.004 385.413C94.004 385.413 95.3974 384.013 96.7362 384.955C96.7538 384.973 96.7635 384.997 96.7635 385.022C96.7635 385.047 96.7538 385.071 96.7362 385.089C96.7167 385.106 96.6909 385.116 96.664 385.116C96.6372 385.116 96.6113 385.106 96.5918 385.089C95.4208 384.256 94.203 385.453 94.1523 385.522C94.1464 385.535 94.1373 385.546 94.1258 385.555C94.1142 385.564 94.1006 385.57 94.086 385.573Z" fill="#090028"/>
<path d="M90.5078 384.647L92.7443 385.01L93.1542 385.374C93.1542 385.374 92.8654 381.908 92.4282 381.235C91.991 380.562 90.5078 384.647 90.5078 384.647Z" fill="#090028"/>
<path d="M98.3102 384.904C98.2957 384.904 98.2812 384.902 98.2678 384.897C98.2543 384.892 98.2421 384.884 98.2321 384.875C98.2134 384.856 98.2031 384.831 98.2031 384.806C98.2031 384.78 98.2134 384.755 98.2321 384.736C98.275 384.704 99.2352 383.896 99.8715 384.373C99.891 384.391 99.902 384.416 99.902 384.442C99.902 384.468 99.891 384.493 99.8715 384.511C99.862 384.52 99.8508 384.527 99.8384 384.532C99.826 384.537 99.8127 384.539 99.7992 384.539C99.7858 384.539 99.7725 384.537 99.7601 384.532C99.7477 384.527 99.7365 384.52 99.7271 384.511C99.2313 384.147 98.3687 384.856 98.3609 384.875C98.3481 384.889 98.3302 384.9 98.3102 384.904Z" fill="#090028"/>
<path d="M96.1792 385.904C96.1803 385.98 96.1494 386.054 96.0933 386.109C96.0371 386.164 95.9601 386.196 95.8786 386.199C95.8166 386.201 95.7553 386.186 95.7025 386.156C95.6497 386.125 95.6079 386.081 95.5824 386.028C95.5568 385.975 95.5487 385.917 95.5591 385.86C95.5695 385.802 95.5979 385.75 95.6406 385.708C95.6834 385.666 95.7386 385.637 95.7992 385.624C95.8598 385.612 95.9231 385.616 95.9809 385.637C96.0387 385.658 96.0884 385.695 96.1237 385.743C96.1591 385.79 96.1784 385.846 96.1792 385.904V385.904Z" fill="#1A2578"/>
<path d="M99.4565 385.542C99.458 385.599 99.4414 385.655 99.4088 385.703C99.3762 385.751 99.329 385.789 99.2733 385.812C99.2176 385.835 99.1558 385.842 99.0957 385.832C99.0356 385.823 98.9799 385.796 98.9357 385.757C98.8915 385.718 98.8608 385.668 98.8474 385.612C98.834 385.557 98.8385 385.499 98.8604 385.446C98.8823 385.393 98.9206 385.347 98.9704 385.314C99.0202 385.282 99.0793 385.263 99.1403 385.262C99.1808 385.261 99.2211 385.267 99.2589 385.281C99.2967 385.294 99.3313 385.315 99.3606 385.341C99.39 385.367 99.4136 385.398 99.43 385.432C99.4465 385.467 99.4554 385.504 99.4565 385.542V385.542Z" fill="#1A2578"/>
<path d="M93.6214 385.865C93.6313 386.206 93.5322 386.543 93.3367 386.832C93.1412 387.121 92.858 387.35 92.523 387.489C92.188 387.628 91.8162 387.672 91.4547 387.614C91.0932 387.556 90.7581 387.4 90.492 387.165C90.2259 386.929 90.0407 386.626 89.9598 386.292C89.8788 385.959 89.9058 385.611 90.0373 385.292C90.1689 384.973 90.399 384.697 90.6986 384.5C90.9982 384.303 91.3539 384.193 91.7205 384.184C92.2116 384.172 92.6877 384.343 93.0441 384.658C93.4005 384.973 93.6081 385.407 93.6214 385.865V385.865Z" fill="white"/>
<path d="M91.4679 386.876C91.3008 386.875 91.1386 386.823 91.0051 386.73C90.8716 386.636 90.7739 386.505 90.7263 386.356C90.6687 386.214 90.6644 386.058 90.714 385.913C90.7636 385.769 90.8642 385.644 90.9995 385.559C91.143 385.469 91.3122 385.42 91.4855 385.42C91.6587 385.42 91.828 385.469 91.9714 385.559C91.9006 385.381 91.7616 385.233 91.5811 385.145C91.3199 385.041 91.0272 385.029 90.7575 385.112C90.7511 385.115 90.744 385.118 90.7367 385.118C90.7293 385.119 90.7219 385.118 90.7149 385.116C90.708 385.113 90.7017 385.11 90.6964 385.105C90.6911 385.1 90.6871 385.094 90.6845 385.088C90.6819 385.081 90.6808 385.074 90.6814 385.068C90.6819 385.061 90.6841 385.054 90.6877 385.048C90.6913 385.042 90.6963 385.037 90.7023 385.033C90.7083 385.029 90.7151 385.026 90.7224 385.025C91.018 384.93 91.3411 384.941 91.6279 385.057C91.7521 385.122 91.8602 385.211 91.945 385.317C92.0297 385.424 92.0893 385.546 92.1197 385.676L92.1666 385.843L92.0339 385.723C91.9039 385.609 91.7367 385.537 91.5587 385.521C91.3807 385.505 91.2019 385.544 91.0503 385.632C90.9357 385.707 90.8509 385.815 90.8093 385.939C90.7676 386.064 90.7714 386.197 90.8199 386.319C90.8598 386.45 90.9442 386.565 91.0604 386.647C91.1765 386.729 91.3182 386.774 91.464 386.774V386.774C91.4706 386.774 91.4773 386.774 91.4837 386.776C91.4901 386.778 91.496 386.781 91.501 386.785C91.5061 386.789 91.5103 386.794 91.5133 386.8C91.5163 386.805 91.5181 386.812 91.5186 386.818C91.5192 386.824 91.5183 386.831 91.516 386.837C91.5137 386.843 91.51 386.849 91.5052 386.854C91.5005 386.858 91.4947 386.862 91.4883 386.865C91.4819 386.867 91.4749 386.869 91.4679 386.869V386.876Z" fill="#AE253D"/>
<path d="M97.3225 387.816C97.3113 387.816 97.3003 387.813 97.2912 387.807C97.282 387.801 97.2751 387.793 97.2717 387.783C97.2679 387.771 97.2691 387.759 97.2749 387.748C97.2807 387.737 97.2908 387.729 97.303 387.725L98.3256 387.361L97.9353 385.106C97.9342 385.1 97.9344 385.093 97.936 385.087C97.9375 385.081 97.9404 385.075 97.9444 385.07C97.9484 385.065 97.9535 385.061 97.9593 385.058C97.9651 385.054 97.9715 385.052 97.9782 385.051C97.9922 385.049 98.0065 385.052 98.0181 385.06C98.0297 385.067 98.0378 385.079 98.0406 385.091L98.431 387.427L97.3264 387.79L97.3225 387.816Z" fill="#AE253D"/>
<path d="M96.5508 388.774L98.5882 388.676C98.5882 388.676 98.358 389.458 97.6124 389.494C96.8669 389.531 96.5508 388.774 96.5508 388.774Z" fill="#A9A9A9"/>
<path d="M90.5055 384.649C90.5055 384.649 89.7873 381.299 90.8568 380.019C91.9263 378.738 98.2065 376.382 98.995 377C99.7834 377.618 99.034 378.389 99.034 378.389C99.034 378.389 101.559 377.564 102.192 379.655C102.824 381.746 97.3751 382.772 94.0808 381.866C92.5951 382.405 91.3394 383.382 90.5055 384.649V384.649Z" fill="#090028"/>
<path d="M168.07 493.414H142.094V488.479C142.094 488.479 143.983 486.107 146.86 487.319C146.86 487.319 151.212 490.196 155.056 486.715L164.58 490.65C164.58 490.65 168.07 491.738 168.07 493.414Z" fill="#C43F5C"/>
<path d="M168.157 495.148H141.896C141.786 495.148 141.679 495.107 141.601 495.034C141.523 494.961 141.479 494.862 141.479 494.759V493.173C141.479 493.07 141.523 492.971 141.601 492.898C141.679 492.825 141.786 492.784 141.896 492.784H168.157C168.293 492.784 168.427 492.809 168.553 492.858C168.678 492.906 168.792 492.977 168.888 493.067C168.985 493.156 169.061 493.262 169.113 493.379C169.165 493.496 169.191 493.622 169.191 493.748V494.203C169.186 494.455 169.075 494.696 168.882 494.873C168.688 495.049 168.428 495.148 168.157 495.148V495.148Z" fill="#0B1249"/>
<path d="M147.812 493.414H121.836V488.479C121.836 488.479 123.725 486.107 126.602 487.319C126.602 487.319 130.954 490.196 134.798 486.715L144.326 490.65C144.326 490.65 147.812 491.738 147.812 493.414Z" fill="#C43F5C"/>
<path d="M147.899 495.148H121.638C121.528 495.148 121.421 495.107 121.343 495.034C121.265 494.961 121.221 494.862 121.221 494.759V493.173C121.221 493.07 121.265 492.971 121.343 492.898C121.421 492.825 121.528 492.784 121.638 492.784H147.899C148.174 492.784 148.437 492.886 148.631 493.067C148.825 493.247 148.934 493.492 148.934 493.748V494.203C148.928 494.455 148.817 494.696 148.624 494.873C148.43 495.049 148.17 495.148 147.899 495.148V495.148Z" fill="#1A2578"/>
<path opacity="0.2" d="M435.957 96.3748C442.857 96.3748 448.45 90.997 448.45 84.3632C448.45 77.7293 442.857 72.3516 435.957 72.3516C429.058 72.3516 423.465 77.7293 423.465 84.3632C423.465 90.997 429.058 96.3748 435.957 96.3748Z" stroke="#BF0830" stroke-width="10"/>
<path opacity="0.3" d="M97.9271 181.674C101.462 181.674 104.327 178.919 104.327 175.52C104.327 172.122 101.462 169.367 97.9271 169.367C94.3926 169.367 91.5273 172.122 91.5273 175.52C91.5273 178.919 94.3926 181.674 97.9271 181.674Z" stroke="#6258C4" stroke-width="5"/>
<path opacity="0.3" d="M494.712 260.389C498.247 260.389 501.112 257.634 501.112 254.235C501.112 250.837 498.247 248.082 494.712 248.082C491.178 248.082 488.312 250.837 488.312 254.235C488.312 257.634 491.178 260.389 494.712 260.389Z" stroke="#74BBFB" stroke-width="5"/>
<g opacity="0.84" filter="url(#filter1_b_70_1059)">
<path d="M184.653 420.501C184.156 421.548 183.101 422.215 181.943 422.215H153.448C151.244 422.215 149.793 419.919 150.737 417.929L158.833 400.87C159.33 399.823 160.385 399.156 161.543 399.156H190.037C192.24 399.156 193.692 401.452 192.748 403.442L184.653 420.501Z" fill="white" fill-opacity="0.46"/>
</g>
<g opacity="0.84" filter="url(#filter2_b_70_1059)">
<path d="M185.504 421.298C185.008 422.345 183.953 423.012 182.794 423.012H154.299C152.096 423.012 150.644 420.716 151.589 418.726L159.685 401.667C160.181 400.62 161.236 399.953 162.395 399.953H190.889C193.092 399.953 194.544 402.249 193.599 404.239L185.504 421.298Z" fill="white" fill-opacity="0.27"/>
</g>
<path d="M169.757 406.561L164.457 406.496L166.812 413.523L172.11 413.588L169.757 406.561Z" fill="#0056A7"/>
<path d="M166.777 413.319L166.858 413.517L172.157 413.58L170.425 408.645L166.777 413.319Z" fill="#2E3191"/>
<path d="M180.985 400.793L166.859 413.517L172.158 413.582L186.285 400.858L180.985 400.793Z" fill="#0056A7"/>
<path d="M166.178 415.434L171.326 415.496L169.886 419.529L164.738 419.465L166.178 415.434Z" fill="#0056A7"/>
<g filter="url(#filter3_bd_70_1059)">
<path d="M304.289 363.426C306.103 367.282 309.981 369.744 314.242 369.744H401.838C404.77 369.744 406.706 366.694 405.458 364.041L377.805 305.251C377.145 303.848 375.735 302.953 374.185 302.953H282.142C279.21 302.953 277.275 306.003 278.523 308.656L304.289 363.426Z" fill="#E2738B" fill-opacity="0.61" shape-rendering="crispEdges"/>
</g>
<g filter="url(#filter4_b_70_1059)">
<path d="M301.73 365.809C303.544 369.665 307.422 372.127 311.684 372.127H399.28C402.211 372.127 404.147 369.077 402.899 366.424L375.246 307.633C374.587 306.231 373.176 305.336 371.627 305.336H279.584C276.652 305.336 274.716 308.386 275.964 311.039L301.73 365.809Z" fill="#E2738B" fill-opacity="0.61"/>
</g>
<path d="M359.091 348.651C359.454 349.413 359.184 350.047 358.493 350.06L349.696 350.229C349.012 350.229 348.137 349.629 347.774 348.868L343.157 339.199C342.795 338.437 343.065 337.803 343.759 337.787L352.552 337.621C353.236 337.621 354.112 338.22 354.474 338.982L359.091 348.651Z" fill="#07BFDD"/>
<path d="M364.719 336.249C365.082 337.01 364.811 337.645 364.121 337.657L355.324 337.826C354.64 337.826 353.765 337.227 353.402 336.462L348.788 326.796C348.422 326.035 348.693 325.397 349.387 325.384L358.18 325.219C358.864 325.219 359.739 325.818 360.102 326.58L364.719 336.249Z" fill="#007FFF"/>
<path d="M336.49 349.089C336.856 349.85 336.586 350.488 335.892 350.5L327.099 350.666C326.415 350.666 325.539 350.067 325.177 349.305L320.56 339.636C320.197 338.874 320.467 338.24 321.158 338.228L329.955 338.059C330.639 338.059 331.511 338.658 331.877 339.419L336.49 349.089Z" fill="#1DA5F8"/>
<path d="M319.233 337.112C319.598 337.874 319.328 338.511 318.634 338.524L309.841 338.693C309.157 338.693 308.281 338.094 307.919 337.329L303.302 327.66C302.939 326.898 303.209 326.264 303.9 326.251L312.693 326.082C313.377 326.082 314.256 326.684 314.619 327.446L319.233 337.112Z" fill="#8CC936"/>
<path d="M296.321 39.2206C272.484 29.603 266.029 10.789 266.029 0C264.252 24.2514 247.256 35.3832 236.59 40.154C259.629 45.4606 264.208 68.1966 266.525 79.9104C269.015 53.6711 286.081 40.154 296.321 39.2206Z" fill="#F1C21C"/>
<defs>
<filter id="filter0_d_70_1059" x="367.074" y="304.305" width="117.266" height="154.289" filterUnits="userSpaceOnUse" color-interpolation-filters="sRGB">
<feFlood flood-opacity="0" result="BackgroundImageFix"/>
<feColorMatrix in="SourceAlpha" type="matrix" values="0 0 0 0 0 0 0 0 0 0 0 0 0 0 0 0 0 0 127 0" result="hardAlpha"/>
<feOffset dx="-2" dy="4"/>
<feGaussianBlur stdDeviation="4.5"/>
<feComposite in2="hardAlpha" operator="out"/>
<feColorMatrix type="matrix" values="0 0 0 0 0 0 0 0 0 0 0 0 0 0 0 0 0 0 0.25 0"/>
<feBlend mode="normal" in2="BackgroundImageFix" result="effect1_dropShadow_70_1059"/>
<feBlend mode="normal" in="SourceGraphic" in2="effect1_dropShadow_70_1059" result="shape"/>
</filter>
<filter id="filter1_b_70_1059" x="146.445" y="395.156" width="50.5938" height="31.0586" filterUnits="userSpaceOnUse" color-interpolation-filters="sRGB">
<feFlood flood-opacity="0" result="BackgroundImageFix"/>
<feGaussianBlur in="BackgroundImageFix" stdDeviation="2"/>
<feComposite in2="SourceAlpha" operator="in" result="effect1_backgroundBlur_70_1059"/>
<feBlend mode="normal" in="SourceGraphic" in2="effect1_backgroundBlur_70_1059" result="shape"/>
</filter>
<filter id="filter2_b_70_1059" x="147.297" y="395.953" width="50.5938" height="31.0586" filterUnits="userSpaceOnUse" color-interpolation-filters="sRGB">
<feFlood flood-opacity="0" result="BackgroundImageFix"/>
<feGaussianBlur in="BackgroundImageFix" stdDeviation="2"/>
<feComposite in2="SourceAlpha" operator="in" result="effect1_backgroundBlur_70_1059"/>
<feBlend mode="normal" in="SourceGraphic" in2="effect1_backgroundBlur_70_1059" result="shape"/>
</filter>
<filter id="filter3_bd_70_1059" x="274.137" y="300.953" width="135.707" height="76.7891" filterUnits="userSpaceOnUse" color-interpolation-filters="sRGB">
<feFlood flood-opacity="0" result="BackgroundImageFix"/>
<feGaussianBlur in="BackgroundImageFix" stdDeviation="1"/>
<feComposite in2="SourceAlpha" operator="in" result="effect1_backgroundBlur_70_1059"/>
<feColorMatrix in="SourceAlpha" type="matrix" values="0 0 0 0 0 0 0 0 0 0 0 0 0 0 0 0 0 0 127 0" result="hardAlpha"/>
<feOffset dy="4"/>
<feGaussianBlur stdDeviation="2"/>
<feComposite in2="hardAlpha" operator="out"/>
<feColorMatrix type="matrix" values="0 0 0 0 0 0 0 0 0 0 0 0 0 0 0 0 0 0 0.25 0"/>
<feBlend mode="normal" in2="effect1_backgroundBlur_70_1059" result="effect2_dropShadow_70_1059"/>
<feBlend mode="normal" in="SourceGraphic" in2="effect2_dropShadow_70_1059" result="shape"/>
</filter>
<filter id="filter4_b_70_1059" x="273.578" y="303.336" width="131.707" height="70.7891" filterUnits="userSpaceOnUse" color-interpolation-filters="sRGB">
<feFlood flood-opacity="0" result="BackgroundImageFix"/>
<feGaussianBlur in="BackgroundImageFix" stdDeviation="1"/>
<feComposite in2="SourceAlpha" operator="in" result="effect1_backgroundBlur_70_1059"/>
<feBlend mode="normal" in="SourceGraphic" in2="effect1_backgroundBlur_70_1059" result="shape"/>
</filter>
</defs>
</svg>
